<?xml version="1.0" encoding="UTF-8"?>
<svg id="Layer_2" data-name="Layer 2" xmlns="http://www.w3.org/2000/svg" viewBox="0 0 299.97 299.97">
  <defs>
    <style>
      .cls-1 {
        fill: none;
      }

      .cls-2 {
        fill: #faf9ec;
      }
    </style>
  </defs>
  <g id="Layer_1-2" data-name="Layer 1">
    <g>
      <g>
        <g>
          <rect class="cls-2" x="137.16" y="60" width="8.57" height="8.57"/>
          <rect class="cls-2" x="154.29" y="60" width="8.57" height="8.57"/>
          <rect class="cls-2" x="171.43" y="60" width="8.57" height="8.57"/>
          <rect class="cls-2" x="120.02" y="60" width="8.57" height="8.57"/>
          <rect class="cls-2" x="145.74" y="68.57" width="8.57" height="8.57"/>
          <rect class="cls-2" x="137.16" y="77.14" width="8.57" height="8.57"/>
          <rect class="cls-2" x="154.29" y="77.14" width="8.57" height="8.57"/>
          <rect class="cls-2" x="171.43" y="77.14" width="8.57" height="8.57"/>
          <rect class="cls-2" x="120.02" y="77.14" width="8.57" height="8.57"/>
          <rect class="cls-2" x="128.59" y="85.72" width="8.57" height="8.57"/>
          <rect class="cls-2" x="145.74" y="85.72" width="8.57" height="8.57"/>
          <rect class="cls-2" x="162.88" y="85.72" width="8.57" height="8.57"/>
          <rect class="cls-2" x="137.16" y="94.29" width="8.57" height="8.57"/>
          <rect class="cls-2" x="154.29" y="94.29" width="8.57" height="8.57"/>
          <rect class="cls-2" x="171.43" y="94.29" width="8.57" height="8.57"/>
          <rect class="cls-2" x="120.02" y="94.29" width="8.57" height="8.57"/>
          <rect class="cls-2" x="145.74" y="102.86" width="8.57" height="8.57"/>
          <rect class="cls-2" x="137.16" y="111.43" width="8.57" height="8.57"/>
          <rect class="cls-2" x="154.29" y="111.43" width="8.57" height="8.57"/>
          <rect class="cls-2" x="171.43" y="111.43" width="8.57" height="8.57"/>
          <rect class="cls-2" x="120.02" y="111.43" width="8.57" height="8.57"/>
        </g>
        <g>
          <rect class="cls-2" x="197.14" y="60" width="8.57" height="8.57"/>
          <rect class="cls-2" x="214.27" y="60" width="8.57" height="8.57"/>
          <rect class="cls-2" x="231.41" y="60" width="8.57" height="8.57"/>
          <rect class="cls-2" x="180" y="60" width="8.57" height="8.57"/>
          <rect class="cls-2" x="205.72" y="68.57" width="8.57" height="8.57"/>
          <rect class="cls-2" x="197.14" y="77.14" width="8.57" height="8.57"/>
          <rect class="cls-2" x="214.27" y="77.14" width="8.57" height="8.57"/>
          <rect class="cls-2" x="231.41" y="77.14" width="8.57" height="8.57"/>
          <rect class="cls-2" x="180" y="77.14" width="8.57" height="8.57"/>
          <rect class="cls-2" x="188.57" y="85.72" width="8.57" height="8.57"/>
          <rect class="cls-2" x="205.72" y="85.72" width="8.57" height="8.57"/>
          <rect class="cls-2" x="222.86" y="85.72" width="8.57" height="8.57"/>
          <rect class="cls-2" x="197.14" y="94.29" width="8.57" height="8.57"/>
          <rect class="cls-2" x="214.27" y="94.29" width="8.57" height="8.57"/>
          <rect class="cls-2" x="231.41" y="94.29" width="8.57" height="8.57"/>
          <rect class="cls-2" x="180" y="94.29" width="8.57" height="8.57"/>
          <rect class="cls-2" x="205.72" y="102.86" width="8.57" height="8.57"/>
          <rect class="cls-2" x="197.14" y="111.43" width="8.57" height="8.57"/>
          <rect class="cls-2" x="214.27" y="111.43" width="8.57" height="8.57"/>
          <rect class="cls-2" x="231.41" y="111.43" width="8.57" height="8.57"/>
          <rect class="cls-2" x="180" y="111.43" width="8.57" height="8.57"/>
        </g>
        <g>
          <rect class="cls-2" x="197.14" y="120" width="8.57" height="8.57"/>
          <rect class="cls-2" x="214.27" y="120" width="8.57" height="8.57"/>
          <rect class="cls-2" x="231.41" y="120" width="8.57" height="8.57"/>
          <rect class="cls-2" x="180" y="120" width="8.57" height="8.57"/>
          <rect class="cls-2" x="205.72" y="128.57" width="8.57" height="8.57"/>
          <rect class="cls-2" x="197.14" y="137.14" width="8.57" height="8.57"/>
          <rect class="cls-2" x="214.27" y="137.14" width="8.57" height="8.57"/>
          <rect class="cls-2" x="231.41" y="137.14" width="8.57" height="8.57"/>
          <rect class="cls-2" x="180" y="137.14" width="8.57" height="8.57"/>
          <rect class="cls-2" x="188.57" y="145.72" width="8.57" height="8.57"/>
          <rect class="cls-2" x="205.72" y="145.72" width="8.57" height="8.57"/>
          <rect class="cls-2" x="222.86" y="145.72" width="8.57" height="8.57"/>
          <rect class="cls-2" x="197.14" y="154.29" width="8.57" height="8.57"/>
          <rect class="cls-2" x="214.27" y="154.29" width="8.57" height="8.57"/>
          <rect class="cls-2" x="231.41" y="154.29" width="8.57" height="8.57"/>
          <rect class="cls-2" x="180" y="154.29" width="8.57" height="8.57"/>
          <rect class="cls-2" x="205.72" y="162.86" width="8.57" height="8.57"/>
          <rect class="cls-2" x="197.14" y="171.43" width="8.57" height="8.57"/>
          <rect class="cls-2" x="214.27" y="171.43" width="8.57" height="8.57"/>
          <rect class="cls-2" x="231.41" y="171.43" width="8.57" height="8.57"/>
          <rect class="cls-2" x="180" y="171.43" width="8.57" height="8.57"/>
        </g>
        <g>
          <rect class="cls-2" x="197.14" y="180" width="8.57" height="8.57"/>
          <rect class="cls-2" x="214.27" y="180" width="8.57" height="8.57"/>
          <rect class="cls-2" x="231.41" y="180" width="8.57" height="8.57"/>
          <rect class="cls-2" x="180" y="180" width="8.57" height="8.57"/>
          <rect class="cls-2" x="205.72" y="188.57" width="8.57" height="8.57"/>
          <rect class="cls-2" x="197.14" y="197.14" width="8.57" height="8.57"/>
          <rect class="cls-2" x="214.27" y="197.14" width="8.57" height="8.57"/>
          <rect class="cls-2" x="231.41" y="197.14" width="8.57" height="8.57"/>
          <rect class="cls-2" x="180" y="197.14" width="8.57" height="8.57"/>
          <rect class="cls-2" x="188.57" y="205.72" width="8.57" height="8.57"/>
          <rect class="cls-2" x="205.72" y="205.72" width="8.57" height="8.57"/>
          <rect class="cls-2" x="222.86" y="205.72" width="8.57" height="8.57"/>
          <rect class="cls-2" x="197.14" y="214.29" width="8.57" height="8.57"/>
          <rect class="cls-2" x="214.27" y="214.29" width="8.57" height="8.57"/>
          <rect class="cls-2" x="231.41" y="214.29" width="8.57" height="8.57"/>
          <rect class="cls-2" x="180" y="214.29" width="8.57" height="8.57"/>
          <rect class="cls-2" x="205.72" y="222.86" width="8.57" height="8.57"/>
          <rect class="cls-2" x="197.14" y="231.43" width="8.57" height="8.57"/>
          <rect class="cls-2" x="214.27" y="231.43" width="8.57" height="8.57"/>
          <rect class="cls-2" x="231.41" y="231.43" width="8.57" height="8.57"/>
          <rect class="cls-2" x="180" y="231.43" width="8.57" height="8.57"/>
        </g>
        <g>
          <rect class="cls-2" x="137.17" y="180" width="8.57" height="8.57"/>
          <rect class="cls-2" x="154.3" y="180" width="8.57" height="8.57"/>
          <rect class="cls-2" x="171.44" y="180" width="8.57" height="8.57"/>
          <rect class="cls-2" x="120.03" y="180" width="8.57" height="8.57"/>
          <rect class="cls-2" x="145.75" y="188.57" width="8.57" height="8.57"/>
          <rect class="cls-2" x="137.17" y="197.14" width="8.57" height="8.57"/>
          <rect class="cls-2" x="154.3" y="197.14" width="8.57" height="8.57"/>
          <rect class="cls-2" x="171.44" y="197.14" width="8.57" height="8.57"/>
          <rect class="cls-2" x="120.03" y="197.14" width="8.57" height="8.57"/>
          <rect class="cls-2" x="128.6" y="205.72" width="8.57" height="8.57"/>
          <rect class="cls-2" x="145.75" y="205.72" width="8.57" height="8.57"/>
          <rect class="cls-2" x="162.89" y="205.72" width="8.57" height="8.57"/>
          <rect class="cls-2" x="137.17" y="214.29" width="8.57" height="8.57"/>
          <rect class="cls-2" x="154.3" y="214.29" width="8.57" height="8.57"/>
          <rect class="cls-2" x="171.44" y="214.29" width="8.57" height="8.57"/>
          <rect class="cls-2" x="120.03" y="214.29" width="8.57" height="8.57"/>
          <rect class="cls-2" x="145.75" y="222.86" width="8.57" height="8.57"/>
          <rect class="cls-2" x="137.17" y="231.43" width="8.57" height="8.57"/>
          <rect class="cls-2" x="154.3" y="231.43" width="8.57" height="8.57"/>
          <rect class="cls-2" x="171.44" y="231.43" width="8.57" height="8.57"/>
          <rect class="cls-2" x="120.03" y="231.43" width="8.57" height="8.57"/>
        </g>
        <g>
          <rect class="cls-2" x="77.18" y="180" width="8.57" height="8.57"/>
          <rect class="cls-2" x="94.32" y="180" width="8.57" height="8.57"/>
          <rect class="cls-2" x="111.45" y="180" width="8.57" height="8.57"/>
          <rect class="cls-2" x="60.04" y="180" width="8.57" height="8.57"/>
          <rect class="cls-2" x="85.76" y="188.57" width="8.57" height="8.57"/>
          <rect class="cls-2" x="77.18" y="197.14" width="8.57" height="8.57"/>
          <rect class="cls-2" x="94.32" y="197.14" width="8.57" height="8.57"/>
          <rect class="cls-2" x="111.45" y="197.14" width="8.57" height="8.57"/>
          <rect class="cls-2" x="60.04" y="197.14" width="8.57" height="8.57"/>
          <rect class="cls-2" x="68.61" y="205.72" width="8.57" height="8.57"/>
          <rect class="cls-2" x="85.76" y="205.72" width="8.57" height="8.57"/>
          <rect class="cls-2" x="102.9" y="205.72" width="8.57" height="8.57"/>
          <rect class="cls-2" x="77.18" y="214.29" width="8.57" height="8.57"/>
          <rect class="cls-2" x="94.32" y="214.29" width="8.57" height="8.57"/>
          <rect class="cls-2" x="111.45" y="214.29" width="8.57" height="8.57"/>
          <rect class="cls-2" x="60.04" y="214.29" width="8.57" height="8.57"/>
          <rect class="cls-2" x="85.76" y="222.86" width="8.57" height="8.57"/>
          <rect class="cls-2" x="77.18" y="231.43" width="8.57" height="8.57"/>
          <rect class="cls-2" x="94.32" y="231.43" width="8.57" height="8.57"/>
          <rect class="cls-2" x="111.45" y="231.43" width="8.57" height="8.57"/>
          <rect class="cls-2" x="60.04" y="231.43" width="8.57" height="8.57"/>
        </g>
        <g>
          <rect class="cls-2" x="77.18" y="120" width="8.57" height="8.57"/>
          <rect class="cls-2" x="94.32" y="120" width="8.57" height="8.57"/>
          <rect class="cls-2" x="111.45" y="120" width="8.57" height="8.57"/>
          <rect class="cls-2" x="60.04" y="120" width="8.57" height="8.57"/>
          <rect class="cls-2" x="85.76" y="128.57" width="8.57" height="8.57"/>
          <rect class="cls-2" x="77.18" y="137.14" width="8.57" height="8.57"/>
          <rect class="cls-2" x="94.32" y="137.14" width="8.57" height="8.57"/>
          <rect class="cls-2" x="111.45" y="137.14" width="8.57" height="8.57"/>
          <rect class="cls-2" x="60.04" y="137.14" width="8.57" height="8.57"/>
          <rect class="cls-2" x="68.61" y="145.72" width="8.57" height="8.57"/>
          <rect class="cls-2" x="85.76" y="145.72" width="8.57" height="8.57"/>
          <rect class="cls-2" x="102.9" y="145.72" width="8.57" height="8.57"/>
          <rect class="cls-2" x="77.18" y="154.29" width="8.57" height="8.57"/>
          <rect class="cls-2" x="94.32" y="154.29" width="8.57" height="8.57"/>
          <rect class="cls-2" x="111.45" y="154.29" width="8.57" height="8.57"/>
          <rect class="cls-2" x="60.04" y="154.29" width="8.57" height="8.57"/>
          <rect class="cls-2" x="85.76" y="162.86" width="8.57" height="8.57"/>
          <rect class="cls-2" x="77.18" y="171.43" width="8.57" height="8.57"/>
          <rect class="cls-2" x="94.32" y="171.43" width="8.57" height="8.57"/>
          <rect class="cls-2" x="111.45" y="171.43" width="8.57" height="8.57"/>
          <rect class="cls-2" x="60.04" y="171.43" width="8.57" height="8.57"/>
        </g>
        <g>
          <rect class="cls-2" x="77.18" y="60" width="8.57" height="8.57"/>
          <rect class="cls-2" x="94.32" y="60" width="8.57" height="8.57"/>
          <rect class="cls-2" x="111.45" y="60" width="8.57" height="8.57"/>
          <rect class="cls-2" x="60.04" y="60" width="8.57" height="8.57"/>
          <rect class="cls-2" x="85.76" y="68.57" width="8.57" height="8.57"/>
          <rect class="cls-2" x="77.18" y="77.14" width="8.57" height="8.57"/>
          <rect class="cls-2" x="94.32" y="77.14" width="8.57" height="8.57"/>
          <rect class="cls-2" x="111.45" y="77.14" width="8.57" height="8.57"/>
          <rect class="cls-2" x="60.04" y="77.14" width="8.57" height="8.57"/>
          <rect class="cls-2" x="68.61" y="85.72" width="8.57" height="8.57"/>
          <rect class="cls-2" x="85.76" y="85.72" width="8.57" height="8.57"/>
          <rect class="cls-2" x="102.9" y="85.72" width="8.57" height="8.57"/>
          <rect class="cls-2" x="77.18" y="94.29" width="8.57" height="8.57"/>
          <rect class="cls-2" x="94.32" y="94.29" width="8.57" height="8.57"/>
          <rect class="cls-2" x="111.45" y="94.29" width="8.57" height="8.57"/>
          <rect class="cls-2" x="60.04" y="94.29" width="8.57" height="8.57"/>
          <rect class="cls-2" x="85.76" y="102.86" width="8.57" height="8.57"/>
          <rect class="cls-2" x="77.18" y="111.43" width="8.57" height="8.57"/>
          <rect class="cls-2" x="94.32" y="111.43" width="8.57" height="8.57"/>
          <rect class="cls-2" x="111.45" y="111.43" width="8.57" height="8.57"/>
          <rect class="cls-2" x="60.04" y="111.43" width="8.57" height="8.57"/>
        </g>
      </g>
      <rect class="cls-1" width="299.97" height="299.97"/>
    </g>
  </g>
</svg>