<?xml version="1.0" encoding="UTF-8"?>
<svg id="Layer_2" data-name="Layer 2" xmlns="http://www.w3.org/2000/svg" viewBox="0 0 299.97 299.97">
  <defs>
    <style>
      .cls-1 {
        fill: none;
      }

      .cls-2 {
        fill: #faf9ec;
      }
    </style>
  </defs>
  <g id="Layer_1-2" data-name="Layer 1">
    <g>
      <g>
        <g>
          <rect class="cls-2" x="137.15" y="60" width="8.57" height="8.57"/>
          <rect class="cls-2" x="154.28" y="60" width="8.57" height="8.57"/>
          <rect class="cls-2" x="171.42" y="60" width="8.57" height="8.57"/>
          <rect class="cls-2" x="120.01" y="60" width="8.57" height="8.57"/>
          <rect class="cls-2" x="137.15" y="77.14" width="8.57" height="8.57"/>
          <rect class="cls-2" x="154.28" y="77.14" width="8.57" height="8.57"/>
          <rect class="cls-2" x="171.42" y="77.14" width="8.57" height="8.57"/>
          <rect class="cls-2" x="120.01" y="77.14" width="8.57" height="8.57"/>
          <rect class="cls-2" x="145.73" y="85.72" width="8.57" height="8.57"/>
          <rect class="cls-2" x="137.15" y="94.29" width="8.57" height="8.57"/>
          <rect class="cls-2" x="154.28" y="94.29" width="8.57" height="8.57"/>
          <rect class="cls-2" x="171.42" y="94.29" width="8.57" height="8.57"/>
          <rect class="cls-2" x="120.01" y="94.29" width="8.57" height="8.57"/>
          <rect class="cls-2" x="137.15" y="111.43" width="8.57" height="8.57"/>
          <rect class="cls-2" x="154.28" y="111.43" width="8.57" height="8.57"/>
          <rect class="cls-2" x="171.42" y="111.43" width="8.57" height="8.57"/>
          <rect class="cls-2" x="120.01" y="111.43" width="8.57" height="8.57"/>
        </g>
        <g>
          <rect class="cls-2" x="197.13" y="60" width="8.57" height="8.57"/>
          <rect class="cls-2" x="214.26" y="60" width="8.57" height="8.57"/>
          <rect class="cls-2" x="231.4" y="60" width="8.57" height="8.57"/>
          <rect class="cls-2" x="179.99" y="60" width="8.57" height="8.57"/>
          <rect class="cls-2" x="197.13" y="77.14" width="8.57" height="8.57"/>
          <rect class="cls-2" x="214.26" y="77.14" width="8.57" height="8.57"/>
          <rect class="cls-2" x="231.4" y="77.14" width="8.57" height="8.57"/>
          <rect class="cls-2" x="179.99" y="77.14" width="8.57" height="8.57"/>
          <rect class="cls-2" x="205.71" y="85.72" width="8.57" height="8.57"/>
          <rect class="cls-2" x="197.13" y="94.29" width="8.57" height="8.57"/>
          <rect class="cls-2" x="214.26" y="94.29" width="8.57" height="8.57"/>
          <rect class="cls-2" x="231.4" y="94.29" width="8.57" height="8.57"/>
          <rect class="cls-2" x="179.99" y="94.29" width="8.57" height="8.57"/>
          <rect class="cls-2" x="197.13" y="111.43" width="8.57" height="8.57"/>
          <rect class="cls-2" x="214.26" y="111.43" width="8.57" height="8.57"/>
          <rect class="cls-2" x="231.4" y="111.43" width="8.57" height="8.57"/>
          <rect class="cls-2" x="179.99" y="111.43" width="8.57" height="8.57"/>
        </g>
        <g>
          <rect class="cls-2" x="197.13" y="120" width="8.57" height="8.57"/>
          <rect class="cls-2" x="214.26" y="120" width="8.57" height="8.57"/>
          <rect class="cls-2" x="231.4" y="120" width="8.57" height="8.57"/>
          <rect class="cls-2" x="179.99" y="120" width="8.57" height="8.57"/>
          <rect class="cls-2" x="197.13" y="137.14" width="8.57" height="8.57"/>
          <rect class="cls-2" x="214.26" y="137.14" width="8.57" height="8.57"/>
          <rect class="cls-2" x="231.4" y="137.14" width="8.57" height="8.57"/>
          <rect class="cls-2" x="179.99" y="137.14" width="8.57" height="8.57"/>
          <rect class="cls-2" x="205.71" y="145.72" width="8.57" height="8.57"/>
          <rect class="cls-2" x="197.13" y="154.29" width="8.57" height="8.57"/>
          <rect class="cls-2" x="214.26" y="154.29" width="8.57" height="8.57"/>
          <rect class="cls-2" x="231.4" y="154.29" width="8.57" height="8.57"/>
          <rect class="cls-2" x="179.99" y="154.29" width="8.57" height="8.57"/>
          <rect class="cls-2" x="197.13" y="171.43" width="8.57" height="8.57"/>
          <rect class="cls-2" x="214.26" y="171.43" width="8.57" height="8.57"/>
          <rect class="cls-2" x="231.4" y="171.43" width="8.57" height="8.57"/>
          <rect class="cls-2" x="179.99" y="171.43" width="8.57" height="8.57"/>
        </g>
        <g>
          <rect class="cls-2" x="197.13" y="180" width="8.57" height="8.57"/>
          <rect class="cls-2" x="214.26" y="180" width="8.57" height="8.57"/>
          <rect class="cls-2" x="231.4" y="180" width="8.57" height="8.57"/>
          <rect class="cls-2" x="179.99" y="180" width="8.57" height="8.57"/>
          <rect class="cls-2" x="197.13" y="197.14" width="8.57" height="8.57"/>
          <rect class="cls-2" x="214.26" y="197.14" width="8.57" height="8.57"/>
          <rect class="cls-2" x="231.4" y="197.14" width="8.57" height="8.57"/>
          <rect class="cls-2" x="179.99" y="197.14" width="8.57" height="8.57"/>
          <rect class="cls-2" x="205.71" y="205.72" width="8.57" height="8.57"/>
          <rect class="cls-2" x="197.13" y="214.29" width="8.57" height="8.57"/>
          <rect class="cls-2" x="214.26" y="214.29" width="8.57" height="8.57"/>
          <rect class="cls-2" x="231.4" y="214.29" width="8.57" height="8.57"/>
          <rect class="cls-2" x="179.99" y="214.29" width="8.57" height="8.57"/>
          <rect class="cls-2" x="197.13" y="231.43" width="8.57" height="8.57"/>
          <rect class="cls-2" x="214.26" y="231.43" width="8.57" height="8.57"/>
          <rect class="cls-2" x="231.4" y="231.43" width="8.57" height="8.57"/>
          <rect class="cls-2" x="179.99" y="231.43" width="8.57" height="8.57"/>
        </g>
        <g>
          <rect class="cls-2" x="137.16" y="180" width="8.57" height="8.57"/>
          <rect class="cls-2" x="154.29" y="180" width="8.57" height="8.57"/>
          <rect class="cls-2" x="171.43" y="180" width="8.57" height="8.57"/>
          <rect class="cls-2" x="120.02" y="180" width="8.57" height="8.57"/>
          <rect class="cls-2" x="137.16" y="197.14" width="8.57" height="8.57"/>
          <rect class="cls-2" x="154.29" y="197.14" width="8.57" height="8.57"/>
          <rect class="cls-2" x="171.43" y="197.14" width="8.57" height="8.57"/>
          <rect class="cls-2" x="120.02" y="197.14" width="8.57" height="8.57"/>
          <rect class="cls-2" x="145.74" y="205.72" width="8.57" height="8.57"/>
          <rect class="cls-2" x="137.16" y="214.29" width="8.57" height="8.57"/>
          <rect class="cls-2" x="154.29" y="214.29" width="8.57" height="8.57"/>
          <rect class="cls-2" x="171.43" y="214.29" width="8.57" height="8.57"/>
          <rect class="cls-2" x="120.02" y="214.29" width="8.57" height="8.57"/>
          <rect class="cls-2" x="137.16" y="231.43" width="8.57" height="8.57"/>
          <rect class="cls-2" x="154.29" y="231.43" width="8.57" height="8.57"/>
          <rect class="cls-2" x="171.43" y="231.43" width="8.57" height="8.57"/>
          <rect class="cls-2" x="120.02" y="231.43" width="8.57" height="8.57"/>
        </g>
        <g>
          <rect class="cls-2" x="77.17" y="180" width="8.57" height="8.57"/>
          <rect class="cls-2" x="94.3" y="180" width="8.57" height="8.57"/>
          <rect class="cls-2" x="111.44" y="180" width="8.57" height="8.57"/>
          <rect class="cls-2" x="60.03" y="180" width="8.57" height="8.57"/>
          <rect class="cls-2" x="77.17" y="197.14" width="8.57" height="8.57"/>
          <rect class="cls-2" x="94.3" y="197.14" width="8.57" height="8.57"/>
          <rect class="cls-2" x="111.44" y="197.14" width="8.57" height="8.57"/>
          <rect class="cls-2" x="60.03" y="197.14" width="8.57" height="8.57"/>
          <rect class="cls-2" x="85.75" y="205.72" width="8.57" height="8.57"/>
          <rect class="cls-2" x="77.17" y="214.29" width="8.57" height="8.57"/>
          <rect class="cls-2" x="94.3" y="214.29" width="8.57" height="8.57"/>
          <rect class="cls-2" x="111.44" y="214.29" width="8.57" height="8.57"/>
          <rect class="cls-2" x="60.03" y="214.29" width="8.57" height="8.57"/>
          <rect class="cls-2" x="77.17" y="231.43" width="8.57" height="8.57"/>
          <rect class="cls-2" x="94.3" y="231.43" width="8.57" height="8.57"/>
          <rect class="cls-2" x="111.44" y="231.43" width="8.57" height="8.57"/>
          <rect class="cls-2" x="60.03" y="231.43" width="8.57" height="8.57"/>
        </g>
        <g>
          <rect class="cls-2" x="77.17" y="120" width="8.57" height="8.57"/>
          <rect class="cls-2" x="94.3" y="120" width="8.57" height="8.57"/>
          <rect class="cls-2" x="111.44" y="120" width="8.57" height="8.57"/>
          <rect class="cls-2" x="60.03" y="120" width="8.57" height="8.57"/>
          <rect class="cls-2" x="77.17" y="137.14" width="8.57" height="8.57"/>
          <rect class="cls-2" x="94.3" y="137.14" width="8.57" height="8.57"/>
          <rect class="cls-2" x="111.44" y="137.14" width="8.57" height="8.57"/>
          <rect class="cls-2" x="60.03" y="137.14" width="8.57" height="8.57"/>
          <rect class="cls-2" x="85.75" y="145.72" width="8.57" height="8.57"/>
          <rect class="cls-2" x="77.17" y="154.29" width="8.57" height="8.57"/>
          <rect class="cls-2" x="94.3" y="154.29" width="8.57" height="8.57"/>
          <rect class="cls-2" x="111.44" y="154.29" width="8.57" height="8.57"/>
          <rect class="cls-2" x="60.03" y="154.29" width="8.57" height="8.57"/>
          <rect class="cls-2" x="77.17" y="171.43" width="8.57" height="8.57"/>
          <rect class="cls-2" x="94.3" y="171.43" width="8.57" height="8.57"/>
          <rect class="cls-2" x="111.44" y="171.43" width="8.57" height="8.57"/>
          <rect class="cls-2" x="60.03" y="171.43" width="8.57" height="8.57"/>
        </g>
        <g>
          <rect class="cls-2" x="77.17" y="60" width="8.57" height="8.57"/>
          <rect class="cls-2" x="94.3" y="60" width="8.57" height="8.57"/>
          <rect class="cls-2" x="111.44" y="60" width="8.57" height="8.57"/>
          <rect class="cls-2" x="60.03" y="60" width="8.57" height="8.57"/>
          <rect class="cls-2" x="77.17" y="77.14" width="8.57" height="8.57"/>
          <rect class="cls-2" x="94.3" y="77.14" width="8.57" height="8.57"/>
          <rect class="cls-2" x="111.44" y="77.14" width="8.57" height="8.57"/>
          <rect class="cls-2" x="60.03" y="77.14" width="8.57" height="8.57"/>
          <rect class="cls-2" x="85.75" y="85.72" width="8.57" height="8.57"/>
          <rect class="cls-2" x="77.17" y="94.29" width="8.57" height="8.57"/>
          <rect class="cls-2" x="94.3" y="94.29" width="8.57" height="8.57"/>
          <rect class="cls-2" x="111.44" y="94.29" width="8.57" height="8.57"/>
          <rect class="cls-2" x="60.03" y="94.29" width="8.57" height="8.57"/>
          <rect class="cls-2" x="77.17" y="111.43" width="8.57" height="8.57"/>
          <rect class="cls-2" x="94.3" y="111.43" width="8.57" height="8.57"/>
          <rect class="cls-2" x="111.44" y="111.43" width="8.57" height="8.57"/>
          <rect class="cls-2" x="60.03" y="111.43" width="8.57" height="8.57"/>
        </g>
      </g>
      <rect class="cls-1" width="299.97" height="299.97"/>
    </g>
  </g>
</svg>