<?xml version="1.0" encoding="UTF-8"?>
<svg id="Layer_2" data-name="Layer 2" xmlns="http://www.w3.org/2000/svg" viewBox="0 0 299.97 299.97">
  <defs>
    <style>
      .cls-1 {
        fill: none;
      }

      .cls-2 {
        fill: #faf9ec;
      }
    </style>
  </defs>
  <g id="Layer_1-2" data-name="Layer 1">
    <g>
      <g>
        <g>
          <rect class="cls-2" x="171.43" y="60" width="8.57" height="8.57"/>
          <rect class="cls-2" x="120.02" y="60" width="8.57" height="8.57"/>
          <rect class="cls-2" x="171.43" y="111.43" width="8.57" height="8.57"/>
          <rect class="cls-2" x="120.02" y="111.43" width="8.57" height="8.57"/>
        </g>
        <g>
          <rect class="cls-2" x="231.41" y="60" width="8.57" height="8.57"/>
          <rect class="cls-2" x="180" y="60" width="8.57" height="8.57"/>
          <rect class="cls-2" x="231.41" y="111.43" width="8.57" height="8.57"/>
          <rect class="cls-2" x="180" y="111.43" width="8.57" height="8.57"/>
        </g>
        <g>
          <rect class="cls-2" x="231.41" y="120" width="8.57" height="8.57"/>
          <rect class="cls-2" x="180" y="120" width="8.57" height="8.57"/>
          <rect class="cls-2" x="231.41" y="171.43" width="8.57" height="8.57"/>
          <rect class="cls-2" x="180" y="171.43" width="8.57" height="8.57"/>
        </g>
        <g>
          <rect class="cls-2" x="231.41" y="180" width="8.57" height="8.57"/>
          <rect class="cls-2" x="180" y="180" width="8.57" height="8.57"/>
          <rect class="cls-2" x="231.41" y="231.43" width="8.57" height="8.57"/>
          <rect class="cls-2" x="180" y="231.43" width="8.57" height="8.57"/>
        </g>
        <g>
          <rect class="cls-2" x="171.44" y="180" width="8.57" height="8.57"/>
          <rect class="cls-2" x="120.03" y="180" width="8.57" height="8.57"/>
          <rect class="cls-2" x="171.44" y="231.43" width="8.57" height="8.57"/>
          <rect class="cls-2" x="120.03" y="231.43" width="8.57" height="8.57"/>
        </g>
        <g>
          <rect class="cls-2" x="111.45" y="180" width="8.57" height="8.57"/>
          <rect class="cls-2" x="60.04" y="180" width="8.57" height="8.57"/>
          <rect class="cls-2" x="111.45" y="231.43" width="8.57" height="8.57"/>
          <rect class="cls-2" x="60.04" y="231.43" width="8.57" height="8.57"/>
        </g>
        <g>
          <rect class="cls-2" x="111.45" y="120" width="8.57" height="8.57"/>
          <rect class="cls-2" x="60.04" y="120" width="8.57" height="8.57"/>
          <rect class="cls-2" x="111.45" y="171.43" width="8.57" height="8.57"/>
          <rect class="cls-2" x="60.04" y="171.43" width="8.57" height="8.57"/>
        </g>
        <g>
          <rect class="cls-2" x="111.45" y="60" width="8.57" height="8.57"/>
          <rect class="cls-2" x="60.04" y="60" width="8.57" height="8.57"/>
          <rect class="cls-2" x="111.45" y="111.43" width="8.57" height="8.57"/>
          <rect class="cls-2" x="60.04" y="111.43" width="8.57" height="8.57"/>
        </g>
      </g>
      <rect class="cls-1" width="299.97" height="299.97"/>
    </g>
  </g>
</svg>