<?xml version="1.0" encoding="UTF-8"?>
<svg id="Layer_2" data-name="Layer 2" xmlns="http://www.w3.org/2000/svg" viewBox="0 0 300 300">
  <defs>
    <style>
      .cls-1 {
        fill: none;
      }

      .cls-2 {
        fill: #faf9ec;
      }
    </style>
  </defs>
  <g id="Layer_1-2" data-name="Layer 1">
    <g>
      <g>
        <g>
          <rect class="cls-2" x="60.01" y="0" width="8.57" height="8.57"/>
          <rect class="cls-2" x="60.01" y="51.43" width="8.57" height="8.57"/>
          <rect class="cls-2" x="85.74" y="25.7" width="8.57" height="8.57"/>
          <rect class="cls-2" x="111.46" y="0" width="8.57" height="8.57"/>
          <rect class="cls-2" x="111.46" y="51.43" width="8.57" height="8.57"/>
        </g>
        <g>
          <rect class="cls-2" x="120" y="0" width="8.57" height="8.57"/>
          <rect class="cls-2" x="120" y="51.43" width="8.57" height="8.57"/>
          <rect class="cls-2" x="145.73" y="25.7" width="8.57" height="8.57"/>
          <rect class="cls-2" x="171.45" y="0" width="8.57" height="8.57"/>
          <rect class="cls-2" x="171.45" y="51.43" width="8.57" height="8.57"/>
        </g>
        <g>
          <rect class="cls-2" x="179.99" y="0" width="8.57" height="8.57"/>
          <rect class="cls-2" x="179.99" y="51.43" width="8.57" height="8.57"/>
          <rect class="cls-2" x="205.72" y="25.7" width="8.57" height="8.57"/>
          <rect class="cls-2" x="231.44" y="0" width="8.57" height="8.57"/>
          <rect class="cls-2" x="231.44" y="51.43" width="8.57" height="8.57"/>
        </g>
        <g>
          <rect class="cls-2" x="239.98" y="0" width="8.57" height="8.57"/>
          <rect class="cls-2" x="239.98" y="51.43" width="8.57" height="8.57"/>
          <rect class="cls-2" x="265.7" y="25.7" width="8.57" height="8.57"/>
          <rect class="cls-2" x="291.43" y="0" width="8.57" height="8.57"/>
          <rect class="cls-2" x="291.43" y="51.43" width="8.57" height="8.57"/>
        </g>
        <g>
          <rect class="cls-2" x="239.98" y="60" width="8.57" height="8.57"/>
          <rect class="cls-2" x="239.98" y="111.43" width="8.57" height="8.57"/>
          <rect class="cls-2" x="265.7" y="85.7" width="8.57" height="8.57"/>
          <rect class="cls-2" x="291.43" y="60" width="8.57" height="8.57"/>
          <rect class="cls-2" x="291.43" y="111.43" width="8.57" height="8.57"/>
        </g>
        <g>
          <rect class="cls-2" x="239.98" y="120" width="8.57" height="8.57"/>
          <rect class="cls-2" x="239.98" y="171.43" width="8.57" height="8.57"/>
          <rect class="cls-2" x="265.7" y="145.7" width="8.57" height="8.57"/>
          <rect class="cls-2" x="291.43" y="120" width="8.57" height="8.57"/>
          <rect class="cls-2" x="291.43" y="171.43" width="8.57" height="8.57"/>
        </g>
        <g>
          <rect class="cls-2" x="239.98" y="180" width="8.57" height="8.57"/>
          <rect class="cls-2" x="239.98" y="231.43" width="8.57" height="8.57"/>
          <rect class="cls-2" x="265.7" y="205.7" width="8.57" height="8.57"/>
          <rect class="cls-2" x="291.43" y="180" width="8.57" height="8.57"/>
          <rect class="cls-2" x="291.43" y="231.43" width="8.57" height="8.57"/>
        </g>
        <g>
          <rect class="cls-2" x="239.98" y="240" width="8.57" height="8.57"/>
          <rect class="cls-2" x="239.98" y="291.43" width="8.57" height="8.57"/>
          <rect class="cls-2" x="265.7" y="265.7" width="8.57" height="8.57"/>
          <rect class="cls-2" x="291.43" y="240" width="8.57" height="8.57"/>
          <rect class="cls-2" x="291.43" y="291.43" width="8.57" height="8.57"/>
        </g>
        <g>
          <rect class="cls-2" x="179.99" y="240" width="8.57" height="8.57"/>
          <rect class="cls-2" x="179.99" y="291.43" width="8.57" height="8.57"/>
          <rect class="cls-2" x="205.72" y="265.7" width="8.57" height="8.57"/>
          <rect class="cls-2" x="231.44" y="240" width="8.57" height="8.57"/>
          <rect class="cls-2" x="231.44" y="291.43" width="8.57" height="8.57"/>
        </g>
        <g>
          <rect class="cls-2" x="120" y="240" width="8.57" height="8.57"/>
          <rect class="cls-2" x="120" y="291.43" width="8.57" height="8.57"/>
          <rect class="cls-2" x="145.73" y="265.7" width="8.57" height="8.57"/>
          <rect class="cls-2" x="171.45" y="240" width="8.57" height="8.57"/>
          <rect class="cls-2" x="171.45" y="291.43" width="8.57" height="8.57"/>
        </g>
        <g>
          <rect class="cls-2" x="60.01" y="240" width="8.57" height="8.57"/>
          <rect class="cls-2" x="60.01" y="291.43" width="8.57" height="8.57"/>
          <rect class="cls-2" x="85.74" y="265.7" width="8.57" height="8.57"/>
          <rect class="cls-2" x="111.46" y="240" width="8.57" height="8.57"/>
          <rect class="cls-2" x="111.46" y="291.43" width="8.57" height="8.57"/>
        </g>
        <g>
          <rect class="cls-2" x=".02" y="240" width="8.57" height="8.57"/>
          <rect class="cls-2" x=".02" y="291.43" width="8.57" height="8.57"/>
          <rect class="cls-2" x="25.75" y="265.7" width="8.57" height="8.57"/>
          <rect class="cls-2" x="51.47" y="240" width="8.57" height="8.57"/>
          <rect class="cls-2" x="51.47" y="291.43" width="8.57" height="8.57"/>
        </g>
        <g>
          <rect class="cls-2" x=".02" y="180" width="8.57" height="8.57"/>
          <rect class="cls-2" x=".02" y="231.43" width="8.57" height="8.57"/>
          <rect class="cls-2" x="25.75" y="205.7" width="8.57" height="8.57"/>
          <rect class="cls-2" x="51.47" y="180" width="8.57" height="8.57"/>
          <rect class="cls-2" x="51.47" y="231.43" width="8.57" height="8.57"/>
        </g>
        <g>
          <rect class="cls-2" x=".02" y="120" width="8.57" height="8.57"/>
          <rect class="cls-2" x=".02" y="171.43" width="8.57" height="8.57"/>
          <rect class="cls-2" x="25.75" y="145.7" width="8.57" height="8.57"/>
          <rect class="cls-2" x="51.47" y="120" width="8.57" height="8.57"/>
          <rect class="cls-2" x="51.47" y="171.43" width="8.57" height="8.57"/>
        </g>
        <g>
          <rect class="cls-2" x=".02" y="60" width="8.57" height="8.57"/>
          <rect class="cls-2" x=".02" y="111.43" width="8.57" height="8.57"/>
          <rect class="cls-2" x="25.75" y="85.7" width="8.57" height="8.57"/>
          <rect class="cls-2" x="51.47" y="60" width="8.57" height="8.57"/>
          <rect class="cls-2" x="51.47" y="111.43" width="8.57" height="8.57"/>
        </g>
        <g>
          <rect class="cls-2" x=".02" y="0" width="8.57" height="8.57"/>
          <rect class="cls-2" x=".02" y="51.43" width="8.57" height="8.57"/>
          <rect class="cls-2" x="25.75" y="25.7" width="8.57" height="8.57"/>
          <rect class="cls-2" x="51.47" y="0" width="8.57" height="8.57"/>
          <rect class="cls-2" x="51.47" y="51.43" width="8.57" height="8.57"/>
        </g>
      </g>
      <rect class="cls-1" y="0" width="299.97" height="299.97"/>
    </g>
  </g>
</svg>