<?xml version="1.0" encoding="UTF-8"?>
<svg id="Layer_2" data-name="Layer 2" xmlns="http://www.w3.org/2000/svg" viewBox="0 0 299.98 300">
  <defs>
    <style>
      .cls-1 {
        fill: none;
      }

      .cls-2 {
        fill: #faf9ec;
      }
    </style>
  </defs>
  <g id="Layer_1-2" data-name="Layer 1">
    <g>
      <g>
        <g>
          <rect class="cls-2" x="77.17" y="0" width="8.57" height="8.57"/>
          <rect class="cls-2" x="94.3" y="0" width="8.57" height="8.57"/>
          <rect class="cls-2" x="111.44" y="0" width="8.57" height="8.57"/>
          <rect class="cls-2" x="60.03" y="0" width="8.57" height="8.57"/>
          <rect class="cls-2" x="77.17" y="17.14" width="8.57" height="8.57"/>
          <rect class="cls-2" x="94.3" y="17.14" width="8.57" height="8.57"/>
          <rect class="cls-2" x="111.44" y="17.14" width="8.57" height="8.57"/>
          <rect class="cls-2" x="60.03" y="17.14" width="8.57" height="8.57"/>
          <rect class="cls-2" x="68.6" y="25.72" width="8.57" height="8.57"/>
          <rect class="cls-2" x="85.75" y="25.72" width="8.57" height="8.57"/>
          <rect class="cls-2" x="102.89" y="25.72" width="8.57" height="8.57"/>
          <rect class="cls-2" x="77.17" y="34.29" width="8.57" height="8.57"/>
          <rect class="cls-2" x="94.3" y="34.29" width="8.57" height="8.57"/>
          <rect class="cls-2" x="111.44" y="34.29" width="8.57" height="8.57"/>
          <rect class="cls-2" x="60.03" y="34.29" width="8.57" height="8.57"/>
          <rect class="cls-2" x="77.17" y="51.43" width="8.57" height="8.57"/>
          <rect class="cls-2" x="94.3" y="51.43" width="8.57" height="8.57"/>
          <rect class="cls-2" x="111.44" y="51.43" width="8.57" height="8.57"/>
          <rect class="cls-2" x="60.03" y="51.43" width="8.57" height="8.57"/>
        </g>
        <g>
          <rect class="cls-2" x="137.16" y="0" width="8.57" height="8.57"/>
          <rect class="cls-2" x="154.29" y="0" width="8.57" height="8.57"/>
          <rect class="cls-2" x="171.43" y="0" width="8.57" height="8.57"/>
          <rect class="cls-2" x="120.02" y="0" width="8.57" height="8.57"/>
          <rect class="cls-2" x="137.16" y="17.14" width="8.57" height="8.57"/>
          <rect class="cls-2" x="154.29" y="17.14" width="8.57" height="8.57"/>
          <rect class="cls-2" x="171.43" y="17.14" width="8.57" height="8.57"/>
          <rect class="cls-2" x="120.02" y="17.14" width="8.57" height="8.57"/>
          <rect class="cls-2" x="128.59" y="25.72" width="8.57" height="8.57"/>
          <rect class="cls-2" x="145.74" y="25.72" width="8.57" height="8.57"/>
          <rect class="cls-2" x="162.88" y="25.72" width="8.57" height="8.57"/>
          <rect class="cls-2" x="137.16" y="34.29" width="8.57" height="8.57"/>
          <rect class="cls-2" x="154.29" y="34.29" width="8.57" height="8.57"/>
          <rect class="cls-2" x="171.43" y="34.29" width="8.57" height="8.57"/>
          <rect class="cls-2" x="120.02" y="34.29" width="8.57" height="8.57"/>
          <rect class="cls-2" x="137.16" y="51.43" width="8.57" height="8.57"/>
          <rect class="cls-2" x="154.29" y="51.43" width="8.57" height="8.57"/>
          <rect class="cls-2" x="171.43" y="51.43" width="8.57" height="8.57"/>
          <rect class="cls-2" x="120.02" y="51.43" width="8.57" height="8.57"/>
        </g>
        <g>
          <rect class="cls-2" x="197.15" y="0" width="8.57" height="8.57"/>
          <rect class="cls-2" x="214.28" y="0" width="8.57" height="8.57"/>
          <rect class="cls-2" x="231.42" y="0" width="8.57" height="8.57"/>
          <rect class="cls-2" x="180.01" y="0" width="8.57" height="8.57"/>
          <rect class="cls-2" x="197.15" y="17.14" width="8.57" height="8.57"/>
          <rect class="cls-2" x="214.28" y="17.14" width="8.57" height="8.57"/>
          <rect class="cls-2" x="231.42" y="17.14" width="8.57" height="8.57"/>
          <rect class="cls-2" x="180.01" y="17.14" width="8.57" height="8.57"/>
          <rect class="cls-2" x="188.58" y="25.72" width="8.57" height="8.57"/>
          <rect class="cls-2" x="205.73" y="25.72" width="8.57" height="8.57"/>
          <rect class="cls-2" x="222.87" y="25.72" width="8.57" height="8.57"/>
          <rect class="cls-2" x="197.15" y="34.29" width="8.57" height="8.57"/>
          <rect class="cls-2" x="214.28" y="34.29" width="8.57" height="8.57"/>
          <rect class="cls-2" x="231.42" y="34.29" width="8.57" height="8.57"/>
          <rect class="cls-2" x="180.01" y="34.29" width="8.57" height="8.57"/>
          <rect class="cls-2" x="197.15" y="51.43" width="8.57" height="8.57"/>
          <rect class="cls-2" x="214.28" y="51.43" width="8.57" height="8.57"/>
          <rect class="cls-2" x="231.42" y="51.43" width="8.57" height="8.57"/>
          <rect class="cls-2" x="180.01" y="51.43" width="8.57" height="8.57"/>
        </g>
        <g>
          <rect class="cls-2" x="257.14" y="0" width="8.57" height="8.57"/>
          <rect class="cls-2" x="274.27" y="0" width="8.57" height="8.57"/>
          <rect class="cls-2" x="291.41" y="0" width="8.57" height="8.57"/>
          <rect class="cls-2" x="240" y="0" width="8.57" height="8.57"/>
          <rect class="cls-2" x="257.14" y="17.14" width="8.57" height="8.57"/>
          <rect class="cls-2" x="274.27" y="17.14" width="8.57" height="8.57"/>
          <rect class="cls-2" x="291.41" y="17.14" width="8.57" height="8.57"/>
          <rect class="cls-2" x="240" y="17.14" width="8.57" height="8.57"/>
          <rect class="cls-2" x="248.57" y="25.72" width="8.57" height="8.57"/>
          <rect class="cls-2" x="265.72" y="25.72" width="8.57" height="8.57"/>
          <rect class="cls-2" x="282.86" y="25.72" width="8.57" height="8.57"/>
          <rect class="cls-2" x="257.14" y="34.29" width="8.57" height="8.57"/>
          <rect class="cls-2" x="274.27" y="34.29" width="8.57" height="8.57"/>
          <rect class="cls-2" x="291.41" y="34.29" width="8.57" height="8.57"/>
          <rect class="cls-2" x="240" y="34.29" width="8.57" height="8.57"/>
          <rect class="cls-2" x="257.14" y="51.43" width="8.57" height="8.57"/>
          <rect class="cls-2" x="274.27" y="51.43" width="8.57" height="8.57"/>
          <rect class="cls-2" x="291.41" y="51.43" width="8.57" height="8.57"/>
          <rect class="cls-2" x="240" y="51.43" width="8.57" height="8.57"/>
        </g>
        <g>
          <rect class="cls-2" x="257.14" y="60" width="8.57" height="8.57"/>
          <rect class="cls-2" x="274.27" y="60" width="8.57" height="8.57"/>
          <rect class="cls-2" x="291.41" y="60" width="8.57" height="8.57"/>
          <rect class="cls-2" x="240" y="60" width="8.57" height="8.57"/>
          <rect class="cls-2" x="257.14" y="77.14" width="8.57" height="8.57"/>
          <rect class="cls-2" x="274.27" y="77.14" width="8.57" height="8.57"/>
          <rect class="cls-2" x="291.41" y="77.14" width="8.57" height="8.57"/>
          <rect class="cls-2" x="240" y="77.14" width="8.57" height="8.57"/>
          <rect class="cls-2" x="248.57" y="85.72" width="8.57" height="8.57"/>
          <rect class="cls-2" x="265.72" y="85.72" width="8.57" height="8.57"/>
          <rect class="cls-2" x="282.86" y="85.72" width="8.57" height="8.57"/>
          <rect class="cls-2" x="257.14" y="94.29" width="8.57" height="8.57"/>
          <rect class="cls-2" x="274.27" y="94.29" width="8.57" height="8.57"/>
          <rect class="cls-2" x="291.41" y="94.29" width="8.57" height="8.57"/>
          <rect class="cls-2" x="240" y="94.29" width="8.57" height="8.57"/>
          <rect class="cls-2" x="257.14" y="111.43" width="8.57" height="8.57"/>
          <rect class="cls-2" x="274.27" y="111.43" width="8.57" height="8.57"/>
          <rect class="cls-2" x="291.41" y="111.43" width="8.57" height="8.57"/>
          <rect class="cls-2" x="240" y="111.43" width="8.57" height="8.57"/>
        </g>
        <g>
          <rect class="cls-2" x="257.14" y="120" width="8.57" height="8.57"/>
          <rect class="cls-2" x="274.27" y="120" width="8.57" height="8.57"/>
          <rect class="cls-2" x="291.41" y="120" width="8.57" height="8.57"/>
          <rect class="cls-2" x="240" y="120" width="8.57" height="8.57"/>
          <rect class="cls-2" x="257.14" y="137.14" width="8.57" height="8.57"/>
          <rect class="cls-2" x="274.27" y="137.14" width="8.57" height="8.57"/>
          <rect class="cls-2" x="291.41" y="137.14" width="8.57" height="8.57"/>
          <rect class="cls-2" x="240" y="137.14" width="8.57" height="8.57"/>
          <rect class="cls-2" x="248.57" y="145.72" width="8.57" height="8.57"/>
          <rect class="cls-2" x="265.72" y="145.72" width="8.57" height="8.57"/>
          <rect class="cls-2" x="282.86" y="145.72" width="8.57" height="8.57"/>
          <rect class="cls-2" x="257.14" y="154.29" width="8.57" height="8.57"/>
          <rect class="cls-2" x="274.27" y="154.29" width="8.57" height="8.57"/>
          <rect class="cls-2" x="291.41" y="154.29" width="8.57" height="8.57"/>
          <rect class="cls-2" x="240" y="154.29" width="8.57" height="8.57"/>
          <rect class="cls-2" x="257.14" y="171.43" width="8.57" height="8.57"/>
          <rect class="cls-2" x="274.27" y="171.43" width="8.57" height="8.57"/>
          <rect class="cls-2" x="291.41" y="171.43" width="8.57" height="8.57"/>
          <rect class="cls-2" x="240" y="171.43" width="8.57" height="8.57"/>
        </g>
        <g>
          <rect class="cls-2" x="257.14" y="180" width="8.57" height="8.57"/>
          <rect class="cls-2" x="274.27" y="180" width="8.57" height="8.57"/>
          <rect class="cls-2" x="291.41" y="180" width="8.57" height="8.57"/>
          <rect class="cls-2" x="240" y="180" width="8.57" height="8.57"/>
          <rect class="cls-2" x="257.14" y="197.14" width="8.57" height="8.57"/>
          <rect class="cls-2" x="274.27" y="197.14" width="8.57" height="8.57"/>
          <rect class="cls-2" x="291.41" y="197.14" width="8.57" height="8.57"/>
          <rect class="cls-2" x="240" y="197.14" width="8.57" height="8.57"/>
          <rect class="cls-2" x="248.57" y="205.72" width="8.57" height="8.57"/>
          <rect class="cls-2" x="265.72" y="205.72" width="8.57" height="8.57"/>
          <rect class="cls-2" x="282.86" y="205.72" width="8.57" height="8.57"/>
          <rect class="cls-2" x="257.14" y="214.29" width="8.57" height="8.57"/>
          <rect class="cls-2" x="274.27" y="214.29" width="8.57" height="8.57"/>
          <rect class="cls-2" x="291.41" y="214.29" width="8.57" height="8.57"/>
          <rect class="cls-2" x="240" y="214.29" width="8.57" height="8.57"/>
          <rect class="cls-2" x="257.14" y="231.43" width="8.57" height="8.57"/>
          <rect class="cls-2" x="274.27" y="231.43" width="8.57" height="8.57"/>
          <rect class="cls-2" x="291.41" y="231.43" width="8.57" height="8.57"/>
          <rect class="cls-2" x="240" y="231.43" width="8.57" height="8.57"/>
        </g>
        <g>
          <rect class="cls-2" x="257.14" y="240" width="8.57" height="8.57"/>
          <rect class="cls-2" x="274.27" y="240" width="8.57" height="8.57"/>
          <rect class="cls-2" x="291.41" y="240" width="8.57" height="8.57"/>
          <rect class="cls-2" x="240" y="240" width="8.57" height="8.57"/>
          <rect class="cls-2" x="257.14" y="257.14" width="8.57" height="8.57"/>
          <rect class="cls-2" x="274.27" y="257.14" width="8.57" height="8.57"/>
          <rect class="cls-2" x="291.41" y="257.14" width="8.57" height="8.57"/>
          <rect class="cls-2" x="240" y="257.14" width="8.57" height="8.57"/>
          <rect class="cls-2" x="248.57" y="265.72" width="8.57" height="8.57"/>
          <rect class="cls-2" x="265.72" y="265.72" width="8.57" height="8.57"/>
          <rect class="cls-2" x="282.86" y="265.72" width="8.57" height="8.57"/>
          <rect class="cls-2" x="257.14" y="274.29" width="8.57" height="8.57"/>
          <rect class="cls-2" x="274.27" y="274.29" width="8.57" height="8.57"/>
          <rect class="cls-2" x="291.41" y="274.29" width="8.57" height="8.57"/>
          <rect class="cls-2" x="240" y="274.29" width="8.57" height="8.57"/>
          <rect class="cls-2" x="257.14" y="291.43" width="8.57" height="8.57"/>
          <rect class="cls-2" x="274.27" y="291.43" width="8.57" height="8.57"/>
          <rect class="cls-2" x="291.41" y="291.43" width="8.57" height="8.57"/>
          <rect class="cls-2" x="240" y="291.43" width="8.57" height="8.57"/>
        </g>
        <g>
          <rect class="cls-2" x="197.15" y="240" width="8.57" height="8.57"/>
          <rect class="cls-2" x="214.28" y="240" width="8.57" height="8.57"/>
          <rect class="cls-2" x="231.42" y="240" width="8.57" height="8.57"/>
          <rect class="cls-2" x="180.01" y="240" width="8.57" height="8.57"/>
          <rect class="cls-2" x="197.15" y="257.14" width="8.57" height="8.57"/>
          <rect class="cls-2" x="214.28" y="257.14" width="8.57" height="8.57"/>
          <rect class="cls-2" x="231.42" y="257.14" width="8.57" height="8.57"/>
          <rect class="cls-2" x="180.01" y="257.14" width="8.57" height="8.57"/>
          <rect class="cls-2" x="188.58" y="265.72" width="8.57" height="8.57"/>
          <rect class="cls-2" x="205.73" y="265.72" width="8.57" height="8.57"/>
          <rect class="cls-2" x="222.87" y="265.72" width="8.57" height="8.57"/>
          <rect class="cls-2" x="197.15" y="274.29" width="8.57" height="8.57"/>
          <rect class="cls-2" x="214.28" y="274.29" width="8.57" height="8.57"/>
          <rect class="cls-2" x="231.42" y="274.29" width="8.57" height="8.57"/>
          <rect class="cls-2" x="180.01" y="274.29" width="8.57" height="8.57"/>
          <rect class="cls-2" x="197.15" y="291.43" width="8.57" height="8.57"/>
          <rect class="cls-2" x="214.28" y="291.43" width="8.57" height="8.57"/>
          <rect class="cls-2" x="231.42" y="291.43" width="8.57" height="8.57"/>
          <rect class="cls-2" x="180.01" y="291.43" width="8.57" height="8.57"/>
        </g>
        <g>
          <rect class="cls-2" x="137.16" y="240" width="8.57" height="8.57"/>
          <rect class="cls-2" x="154.29" y="240" width="8.57" height="8.57"/>
          <rect class="cls-2" x="171.43" y="240" width="8.57" height="8.57"/>
          <rect class="cls-2" x="120.02" y="240" width="8.57" height="8.57"/>
          <rect class="cls-2" x="137.16" y="257.14" width="8.57" height="8.57"/>
          <rect class="cls-2" x="154.29" y="257.14" width="8.57" height="8.57"/>
          <rect class="cls-2" x="171.43" y="257.14" width="8.57" height="8.57"/>
          <rect class="cls-2" x="120.02" y="257.14" width="8.57" height="8.57"/>
          <rect class="cls-2" x="128.59" y="265.72" width="8.57" height="8.57"/>
          <rect class="cls-2" x="145.74" y="265.72" width="8.57" height="8.57"/>
          <rect class="cls-2" x="162.88" y="265.72" width="8.57" height="8.57"/>
          <rect class="cls-2" x="137.16" y="274.29" width="8.57" height="8.57"/>
          <rect class="cls-2" x="154.29" y="274.29" width="8.57" height="8.57"/>
          <rect class="cls-2" x="171.43" y="274.29" width="8.57" height="8.57"/>
          <rect class="cls-2" x="120.02" y="274.29" width="8.57" height="8.57"/>
          <rect class="cls-2" x="137.16" y="291.43" width="8.57" height="8.57"/>
          <rect class="cls-2" x="154.29" y="291.43" width="8.57" height="8.57"/>
          <rect class="cls-2" x="171.43" y="291.43" width="8.57" height="8.57"/>
          <rect class="cls-2" x="120.02" y="291.43" width="8.57" height="8.57"/>
        </g>
        <g>
          <rect class="cls-2" x="77.17" y="240" width="8.57" height="8.57"/>
          <rect class="cls-2" x="94.3" y="240" width="8.57" height="8.57"/>
          <rect class="cls-2" x="111.44" y="240" width="8.57" height="8.57"/>
          <rect class="cls-2" x="60.03" y="240" width="8.57" height="8.57"/>
          <rect class="cls-2" x="77.17" y="257.14" width="8.57" height="8.57"/>
          <rect class="cls-2" x="94.3" y="257.14" width="8.57" height="8.57"/>
          <rect class="cls-2" x="111.44" y="257.14" width="8.57" height="8.57"/>
          <rect class="cls-2" x="60.03" y="257.14" width="8.57" height="8.57"/>
          <rect class="cls-2" x="68.6" y="265.72" width="8.57" height="8.57"/>
          <rect class="cls-2" x="85.75" y="265.72" width="8.57" height="8.57"/>
          <rect class="cls-2" x="102.89" y="265.72" width="8.57" height="8.57"/>
          <rect class="cls-2" x="77.17" y="274.29" width="8.57" height="8.57"/>
          <rect class="cls-2" x="94.3" y="274.29" width="8.57" height="8.57"/>
          <rect class="cls-2" x="111.44" y="274.29" width="8.57" height="8.57"/>
          <rect class="cls-2" x="60.03" y="274.29" width="8.57" height="8.57"/>
          <rect class="cls-2" x="77.17" y="291.43" width="8.57" height="8.57"/>
          <rect class="cls-2" x="94.3" y="291.43" width="8.57" height="8.57"/>
          <rect class="cls-2" x="111.44" y="291.43" width="8.57" height="8.57"/>
          <rect class="cls-2" x="60.03" y="291.43" width="8.57" height="8.57"/>
        </g>
        <g>
          <rect class="cls-2" x="17.18" y="240" width="8.57" height="8.57"/>
          <rect class="cls-2" x="34.32" y="240" width="8.57" height="8.57"/>
          <rect class="cls-2" x="51.45" y="240" width="8.57" height="8.57"/>
          <rect class="cls-2" x=".04" y="240" width="8.57" height="8.57"/>
          <rect class="cls-2" x="17.18" y="257.14" width="8.57" height="8.57"/>
          <rect class="cls-2" x="34.32" y="257.14" width="8.57" height="8.57"/>
          <rect class="cls-2" x="51.45" y="257.14" width="8.57" height="8.57"/>
          <rect class="cls-2" x=".04" y="257.14" width="8.57" height="8.57"/>
          <rect class="cls-2" x="8.61" y="265.72" width="8.57" height="8.57"/>
          <rect class="cls-2" x="25.76" y="265.72" width="8.57" height="8.57"/>
          <rect class="cls-2" x="42.9" y="265.72" width="8.57" height="8.57"/>
          <rect class="cls-2" x="17.18" y="274.29" width="8.57" height="8.57"/>
          <rect class="cls-2" x="34.32" y="274.29" width="8.57" height="8.57"/>
          <rect class="cls-2" x="51.45" y="274.29" width="8.57" height="8.57"/>
          <rect class="cls-2" x=".04" y="274.29" width="8.57" height="8.57"/>
          <rect class="cls-2" x="17.18" y="291.43" width="8.57" height="8.57"/>
          <rect class="cls-2" x="34.32" y="291.43" width="8.57" height="8.57"/>
          <rect class="cls-2" x="51.45" y="291.43" width="8.57" height="8.57"/>
          <rect class="cls-2" x=".04" y="291.43" width="8.57" height="8.57"/>
        </g>
        <g>
          <rect class="cls-2" x="17.18" y="180" width="8.57" height="8.57"/>
          <rect class="cls-2" x="34.32" y="180" width="8.57" height="8.57"/>
          <rect class="cls-2" x="51.45" y="180" width="8.57" height="8.57"/>
          <rect class="cls-2" x=".04" y="180" width="8.57" height="8.57"/>
          <rect class="cls-2" x="17.18" y="197.14" width="8.57" height="8.57"/>
          <rect class="cls-2" x="34.32" y="197.14" width="8.57" height="8.57"/>
          <rect class="cls-2" x="51.45" y="197.14" width="8.57" height="8.57"/>
          <rect class="cls-2" x=".04" y="197.14" width="8.57" height="8.57"/>
          <rect class="cls-2" x="8.61" y="205.72" width="8.57" height="8.57"/>
          <rect class="cls-2" x="25.76" y="205.72" width="8.57" height="8.57"/>
          <rect class="cls-2" x="42.9" y="205.72" width="8.57" height="8.57"/>
          <rect class="cls-2" x="17.18" y="214.29" width="8.57" height="8.57"/>
          <rect class="cls-2" x="34.32" y="214.29" width="8.57" height="8.57"/>
          <rect class="cls-2" x="51.45" y="214.29" width="8.57" height="8.57"/>
          <rect class="cls-2" x=".04" y="214.29" width="8.57" height="8.57"/>
          <rect class="cls-2" x="17.18" y="231.43" width="8.57" height="8.57"/>
          <rect class="cls-2" x="34.32" y="231.43" width="8.57" height="8.57"/>
          <rect class="cls-2" x="51.45" y="231.43" width="8.57" height="8.57"/>
          <rect class="cls-2" x=".04" y="231.43" width="8.57" height="8.57"/>
        </g>
        <g>
          <rect class="cls-2" x="17.18" y="120" width="8.57" height="8.57"/>
          <rect class="cls-2" x="34.32" y="120" width="8.57" height="8.57"/>
          <rect class="cls-2" x="51.45" y="120" width="8.57" height="8.57"/>
          <rect class="cls-2" x=".04" y="120" width="8.57" height="8.57"/>
          <rect class="cls-2" x="17.18" y="137.14" width="8.57" height="8.57"/>
          <rect class="cls-2" x="34.32" y="137.14" width="8.57" height="8.57"/>
          <rect class="cls-2" x="51.45" y="137.14" width="8.57" height="8.57"/>
          <rect class="cls-2" x=".04" y="137.14" width="8.57" height="8.57"/>
          <rect class="cls-2" x="8.61" y="145.72" width="8.57" height="8.57"/>
          <rect class="cls-2" x="25.76" y="145.72" width="8.57" height="8.57"/>
          <rect class="cls-2" x="42.9" y="145.72" width="8.57" height="8.57"/>
          <rect class="cls-2" x="17.18" y="154.29" width="8.57" height="8.57"/>
          <rect class="cls-2" x="34.32" y="154.29" width="8.57" height="8.57"/>
          <rect class="cls-2" x="51.45" y="154.29" width="8.57" height="8.57"/>
          <rect class="cls-2" x=".04" y="154.29" width="8.57" height="8.57"/>
          <rect class="cls-2" x="17.18" y="171.43" width="8.57" height="8.57"/>
          <rect class="cls-2" x="34.32" y="171.43" width="8.57" height="8.57"/>
          <rect class="cls-2" x="51.45" y="171.43" width="8.57" height="8.57"/>
          <rect class="cls-2" x=".04" y="171.43" width="8.57" height="8.57"/>
        </g>
        <g>
          <rect class="cls-2" x="17.18" y="60" width="8.57" height="8.57"/>
          <rect class="cls-2" x="34.32" y="60" width="8.57" height="8.57"/>
          <rect class="cls-2" x="51.45" y="60" width="8.57" height="8.57"/>
          <rect class="cls-2" x=".04" y="60" width="8.57" height="8.57"/>
          <rect class="cls-2" x="17.18" y="77.14" width="8.57" height="8.57"/>
          <rect class="cls-2" x="34.32" y="77.14" width="8.57" height="8.57"/>
          <rect class="cls-2" x="51.45" y="77.14" width="8.57" height="8.57"/>
          <rect class="cls-2" x=".04" y="77.14" width="8.57" height="8.57"/>
          <rect class="cls-2" x="8.61" y="85.72" width="8.57" height="8.57"/>
          <rect class="cls-2" x="25.76" y="85.72" width="8.57" height="8.57"/>
          <rect class="cls-2" x="42.9" y="85.72" width="8.57" height="8.57"/>
          <rect class="cls-2" x="17.18" y="94.29" width="8.57" height="8.57"/>
          <rect class="cls-2" x="34.32" y="94.29" width="8.57" height="8.57"/>
          <rect class="cls-2" x="51.45" y="94.29" width="8.57" height="8.57"/>
          <rect class="cls-2" x=".04" y="94.29" width="8.57" height="8.57"/>
          <rect class="cls-2" x="17.18" y="111.43" width="8.57" height="8.57"/>
          <rect class="cls-2" x="34.32" y="111.43" width="8.57" height="8.57"/>
          <rect class="cls-2" x="51.45" y="111.43" width="8.57" height="8.57"/>
          <rect class="cls-2" x=".04" y="111.43" width="8.57" height="8.57"/>
        </g>
        <g>
          <rect class="cls-2" x="17.18" y="0" width="8.57" height="8.57"/>
          <rect class="cls-2" x="34.32" y="0" width="8.57" height="8.57"/>
          <rect class="cls-2" x="51.45" y="0" width="8.57" height="8.57"/>
          <rect class="cls-2" x=".04" y="0" width="8.57" height="8.57"/>
          <rect class="cls-2" x="17.18" y="17.14" width="8.57" height="8.57"/>
          <rect class="cls-2" x="34.32" y="17.14" width="8.57" height="8.57"/>
          <rect class="cls-2" x="51.45" y="17.14" width="8.57" height="8.57"/>
          <rect class="cls-2" x=".04" y="17.14" width="8.57" height="8.57"/>
          <rect class="cls-2" x="8.61" y="25.72" width="8.57" height="8.57"/>
          <rect class="cls-2" x="25.76" y="25.72" width="8.57" height="8.57"/>
          <rect class="cls-2" x="42.9" y="25.72" width="8.57" height="8.57"/>
          <rect class="cls-2" x="17.18" y="34.29" width="8.57" height="8.57"/>
          <rect class="cls-2" x="34.32" y="34.29" width="8.57" height="8.57"/>
          <rect class="cls-2" x="51.45" y="34.29" width="8.57" height="8.57"/>
          <rect class="cls-2" x=".04" y="34.29" width="8.57" height="8.57"/>
          <rect class="cls-2" x="17.18" y="51.43" width="8.57" height="8.57"/>
          <rect class="cls-2" x="34.32" y="51.43" width="8.57" height="8.57"/>
          <rect class="cls-2" x="51.45" y="51.43" width="8.57" height="8.57"/>
          <rect class="cls-2" x=".04" y="51.43" width="8.57" height="8.57"/>
        </g>
      </g>
      <rect class="cls-1" width="299.97" height="299.97"/>
    </g>
  </g>
</svg>