<?xml version="1.0" encoding="UTF-8"?>
<svg id="Layer_2" data-name="Layer 2" xmlns="http://www.w3.org/2000/svg" viewBox="0 0 299.97 300">
  <defs>
    <style>
      .cls-1 {
        fill: none;
      }

      .cls-2 {
        fill: #faf9ec;
      }
    </style>
  </defs>
  <g id="Layer_1-2" data-name="Layer 1">
    <g>
      <g>
        <g>
          <rect class="cls-2" x="77.16" y="0" width="8.57" height="8.57"/>
          <rect class="cls-2" x="94.29" y="0" width="8.57" height="8.57"/>
          <rect class="cls-2" x="111.43" y="0" width="8.57" height="8.57"/>
          <rect class="cls-2" x="60.02" y="0" width="8.57" height="8.57"/>
          <rect class="cls-2" x="77.16" y="17.14" width="8.57" height="8.57"/>
          <rect class="cls-2" x="94.29" y="17.14" width="8.57" height="8.57"/>
          <rect class="cls-2" x="111.43" y="17.14" width="8.57" height="8.57"/>
          <rect class="cls-2" x="60.02" y="17.14" width="8.57" height="8.57"/>
          <rect class="cls-2" x="85.74" y="25.72" width="8.57" height="8.57"/>
          <rect class="cls-2" x="77.16" y="34.29" width="8.57" height="8.57"/>
          <rect class="cls-2" x="94.29" y="34.29" width="8.57" height="8.57"/>
          <rect class="cls-2" x="111.43" y="34.29" width="8.57" height="8.57"/>
          <rect class="cls-2" x="60.02" y="34.29" width="8.57" height="8.57"/>
          <rect class="cls-2" x="77.16" y="51.43" width="8.57" height="8.57"/>
          <rect class="cls-2" x="94.29" y="51.43" width="8.57" height="8.57"/>
          <rect class="cls-2" x="111.43" y="51.43" width="8.57" height="8.57"/>
          <rect class="cls-2" x="60.02" y="51.43" width="8.57" height="8.57"/>
        </g>
        <g>
          <rect class="cls-2" x="137.15" y="0" width="8.57" height="8.57"/>
          <rect class="cls-2" x="154.28" y="0" width="8.57" height="8.57"/>
          <rect class="cls-2" x="171.42" y="0" width="8.57" height="8.57"/>
          <rect class="cls-2" x="120.01" y="0" width="8.57" height="8.57"/>
          <rect class="cls-2" x="137.15" y="17.14" width="8.57" height="8.57"/>
          <rect class="cls-2" x="154.28" y="17.14" width="8.57" height="8.57"/>
          <rect class="cls-2" x="171.42" y="17.14" width="8.57" height="8.57"/>
          <rect class="cls-2" x="120.01" y="17.14" width="8.57" height="8.57"/>
          <rect class="cls-2" x="145.73" y="25.72" width="8.57" height="8.57"/>
          <rect class="cls-2" x="137.15" y="34.29" width="8.57" height="8.57"/>
          <rect class="cls-2" x="154.28" y="34.29" width="8.57" height="8.57"/>
          <rect class="cls-2" x="171.42" y="34.29" width="8.57" height="8.57"/>
          <rect class="cls-2" x="120.01" y="34.29" width="8.57" height="8.57"/>
          <rect class="cls-2" x="137.15" y="51.43" width="8.57" height="8.57"/>
          <rect class="cls-2" x="154.28" y="51.43" width="8.57" height="8.57"/>
          <rect class="cls-2" x="171.42" y="51.43" width="8.57" height="8.57"/>
          <rect class="cls-2" x="120.01" y="51.43" width="8.57" height="8.57"/>
        </g>
        <g>
          <rect class="cls-2" x="197.14" y="0" width="8.57" height="8.57"/>
          <rect class="cls-2" x="214.27" y="0" width="8.57" height="8.57"/>
          <rect class="cls-2" x="231.41" y="0" width="8.57" height="8.57"/>
          <rect class="cls-2" x="180" y="0" width="8.57" height="8.57"/>
          <rect class="cls-2" x="197.14" y="17.14" width="8.57" height="8.57"/>
          <rect class="cls-2" x="214.27" y="17.14" width="8.57" height="8.57"/>
          <rect class="cls-2" x="231.41" y="17.14" width="8.57" height="8.57"/>
          <rect class="cls-2" x="180" y="17.14" width="8.57" height="8.57"/>
          <rect class="cls-2" x="205.72" y="25.72" width="8.57" height="8.57"/>
          <rect class="cls-2" x="197.14" y="34.29" width="8.57" height="8.57"/>
          <rect class="cls-2" x="214.27" y="34.29" width="8.57" height="8.57"/>
          <rect class="cls-2" x="231.41" y="34.29" width="8.57" height="8.57"/>
          <rect class="cls-2" x="180" y="34.29" width="8.57" height="8.57"/>
          <rect class="cls-2" x="197.14" y="51.43" width="8.57" height="8.57"/>
          <rect class="cls-2" x="214.27" y="51.43" width="8.57" height="8.57"/>
          <rect class="cls-2" x="231.41" y="51.43" width="8.57" height="8.57"/>
          <rect class="cls-2" x="180" y="51.43" width="8.57" height="8.57"/>
        </g>
        <g>
          <rect class="cls-2" x="257.13" y="0" width="8.57" height="8.57"/>
          <rect class="cls-2" x="274.26" y="0" width="8.57" height="8.57"/>
          <rect class="cls-2" x="291.4" y="0" width="8.57" height="8.57"/>
          <rect class="cls-2" x="239.99" y="0" width="8.57" height="8.57"/>
          <rect class="cls-2" x="257.13" y="17.14" width="8.57" height="8.57"/>
          <rect class="cls-2" x="274.26" y="17.14" width="8.57" height="8.57"/>
          <rect class="cls-2" x="291.4" y="17.14" width="8.57" height="8.57"/>
          <rect class="cls-2" x="239.99" y="17.14" width="8.57" height="8.57"/>
          <rect class="cls-2" x="265.71" y="25.72" width="8.57" height="8.57"/>
          <rect class="cls-2" x="257.13" y="34.29" width="8.57" height="8.57"/>
          <rect class="cls-2" x="274.26" y="34.29" width="8.57" height="8.57"/>
          <rect class="cls-2" x="291.4" y="34.29" width="8.57" height="8.57"/>
          <rect class="cls-2" x="239.99" y="34.29" width="8.57" height="8.57"/>
          <rect class="cls-2" x="257.13" y="51.43" width="8.57" height="8.57"/>
          <rect class="cls-2" x="274.26" y="51.43" width="8.57" height="8.57"/>
          <rect class="cls-2" x="291.4" y="51.43" width="8.57" height="8.57"/>
          <rect class="cls-2" x="239.99" y="51.43" width="8.57" height="8.57"/>
        </g>
        <g>
          <rect class="cls-2" x="257.13" y="60" width="8.57" height="8.57"/>
          <rect class="cls-2" x="274.26" y="60" width="8.57" height="8.57"/>
          <rect class="cls-2" x="291.4" y="60" width="8.57" height="8.57"/>
          <rect class="cls-2" x="239.99" y="60" width="8.57" height="8.57"/>
          <rect class="cls-2" x="257.13" y="77.14" width="8.57" height="8.57"/>
          <rect class="cls-2" x="274.26" y="77.14" width="8.57" height="8.57"/>
          <rect class="cls-2" x="291.4" y="77.14" width="8.57" height="8.57"/>
          <rect class="cls-2" x="239.99" y="77.14" width="8.57" height="8.57"/>
          <rect class="cls-2" x="265.71" y="85.72" width="8.57" height="8.57"/>
          <rect class="cls-2" x="257.13" y="94.29" width="8.57" height="8.57"/>
          <rect class="cls-2" x="274.26" y="94.29" width="8.57" height="8.57"/>
          <rect class="cls-2" x="291.4" y="94.29" width="8.57" height="8.57"/>
          <rect class="cls-2" x="239.99" y="94.29" width="8.57" height="8.57"/>
          <rect class="cls-2" x="257.13" y="111.43" width="8.57" height="8.57"/>
          <rect class="cls-2" x="274.26" y="111.43" width="8.57" height="8.57"/>
          <rect class="cls-2" x="291.4" y="111.43" width="8.57" height="8.57"/>
          <rect class="cls-2" x="239.99" y="111.43" width="8.57" height="8.57"/>
        </g>
        <g>
          <rect class="cls-2" x="257.13" y="120" width="8.57" height="8.57"/>
          <rect class="cls-2" x="274.26" y="120" width="8.57" height="8.57"/>
          <rect class="cls-2" x="291.4" y="120" width="8.57" height="8.57"/>
          <rect class="cls-2" x="239.99" y="120" width="8.57" height="8.57"/>
          <rect class="cls-2" x="257.13" y="137.14" width="8.57" height="8.57"/>
          <rect class="cls-2" x="274.26" y="137.14" width="8.57" height="8.57"/>
          <rect class="cls-2" x="291.4" y="137.14" width="8.57" height="8.57"/>
          <rect class="cls-2" x="239.99" y="137.14" width="8.57" height="8.57"/>
          <rect class="cls-2" x="265.71" y="145.72" width="8.57" height="8.57"/>
          <rect class="cls-2" x="257.13" y="154.29" width="8.57" height="8.57"/>
          <rect class="cls-2" x="274.26" y="154.29" width="8.57" height="8.57"/>
          <rect class="cls-2" x="291.4" y="154.29" width="8.57" height="8.57"/>
          <rect class="cls-2" x="239.99" y="154.29" width="8.57" height="8.57"/>
          <rect class="cls-2" x="257.13" y="171.43" width="8.57" height="8.57"/>
          <rect class="cls-2" x="274.26" y="171.43" width="8.57" height="8.57"/>
          <rect class="cls-2" x="291.4" y="171.43" width="8.57" height="8.57"/>
          <rect class="cls-2" x="239.99" y="171.43" width="8.57" height="8.57"/>
        </g>
        <g>
          <rect class="cls-2" x="257.13" y="180" width="8.57" height="8.57"/>
          <rect class="cls-2" x="274.26" y="180" width="8.57" height="8.57"/>
          <rect class="cls-2" x="291.4" y="180" width="8.57" height="8.57"/>
          <rect class="cls-2" x="239.99" y="180" width="8.57" height="8.57"/>
          <rect class="cls-2" x="257.13" y="197.14" width="8.57" height="8.57"/>
          <rect class="cls-2" x="274.26" y="197.14" width="8.57" height="8.57"/>
          <rect class="cls-2" x="291.4" y="197.14" width="8.57" height="8.57"/>
          <rect class="cls-2" x="239.99" y="197.14" width="8.57" height="8.57"/>
          <rect class="cls-2" x="265.71" y="205.72" width="8.57" height="8.57"/>
          <rect class="cls-2" x="257.13" y="214.29" width="8.57" height="8.57"/>
          <rect class="cls-2" x="274.26" y="214.29" width="8.57" height="8.57"/>
          <rect class="cls-2" x="291.4" y="214.29" width="8.57" height="8.57"/>
          <rect class="cls-2" x="239.99" y="214.29" width="8.57" height="8.57"/>
          <rect class="cls-2" x="257.13" y="231.43" width="8.57" height="8.57"/>
          <rect class="cls-2" x="274.26" y="231.43" width="8.57" height="8.57"/>
          <rect class="cls-2" x="291.4" y="231.43" width="8.57" height="8.57"/>
          <rect class="cls-2" x="239.99" y="231.43" width="8.57" height="8.57"/>
        </g>
        <g>
          <rect class="cls-2" x="257.13" y="240" width="8.57" height="8.57"/>
          <rect class="cls-2" x="274.26" y="240" width="8.57" height="8.57"/>
          <rect class="cls-2" x="291.4" y="240" width="8.57" height="8.57"/>
          <rect class="cls-2" x="239.99" y="240" width="8.57" height="8.57"/>
          <rect class="cls-2" x="257.13" y="257.14" width="8.57" height="8.57"/>
          <rect class="cls-2" x="274.26" y="257.14" width="8.57" height="8.57"/>
          <rect class="cls-2" x="291.4" y="257.14" width="8.57" height="8.57"/>
          <rect class="cls-2" x="239.99" y="257.14" width="8.57" height="8.57"/>
          <rect class="cls-2" x="265.71" y="265.72" width="8.57" height="8.57"/>
          <rect class="cls-2" x="257.13" y="274.29" width="8.57" height="8.57"/>
          <rect class="cls-2" x="274.26" y="274.29" width="8.57" height="8.57"/>
          <rect class="cls-2" x="291.4" y="274.29" width="8.57" height="8.57"/>
          <rect class="cls-2" x="239.99" y="274.29" width="8.57" height="8.57"/>
          <rect class="cls-2" x="257.13" y="291.43" width="8.57" height="8.57"/>
          <rect class="cls-2" x="274.26" y="291.43" width="8.57" height="8.57"/>
          <rect class="cls-2" x="291.4" y="291.43" width="8.57" height="8.57"/>
          <rect class="cls-2" x="239.99" y="291.43" width="8.57" height="8.57"/>
        </g>
        <g>
          <rect class="cls-2" x="197.14" y="240" width="8.57" height="8.57"/>
          <rect class="cls-2" x="214.27" y="240" width="8.57" height="8.57"/>
          <rect class="cls-2" x="231.41" y="240" width="8.57" height="8.57"/>
          <rect class="cls-2" x="180" y="240" width="8.57" height="8.57"/>
          <rect class="cls-2" x="197.14" y="257.14" width="8.57" height="8.57"/>
          <rect class="cls-2" x="214.27" y="257.14" width="8.57" height="8.57"/>
          <rect class="cls-2" x="231.41" y="257.14" width="8.57" height="8.57"/>
          <rect class="cls-2" x="180" y="257.14" width="8.57" height="8.57"/>
          <rect class="cls-2" x="205.72" y="265.72" width="8.57" height="8.57"/>
          <rect class="cls-2" x="197.14" y="274.29" width="8.57" height="8.57"/>
          <rect class="cls-2" x="214.27" y="274.29" width="8.57" height="8.57"/>
          <rect class="cls-2" x="231.41" y="274.29" width="8.57" height="8.57"/>
          <rect class="cls-2" x="180" y="274.29" width="8.57" height="8.57"/>
          <rect class="cls-2" x="197.14" y="291.43" width="8.57" height="8.57"/>
          <rect class="cls-2" x="214.27" y="291.43" width="8.57" height="8.57"/>
          <rect class="cls-2" x="231.41" y="291.43" width="8.57" height="8.57"/>
          <rect class="cls-2" x="180" y="291.43" width="8.57" height="8.57"/>
        </g>
        <g>
          <rect class="cls-2" x="137.15" y="240" width="8.57" height="8.57"/>
          <rect class="cls-2" x="154.28" y="240" width="8.57" height="8.57"/>
          <rect class="cls-2" x="171.42" y="240" width="8.57" height="8.57"/>
          <rect class="cls-2" x="120.01" y="240" width="8.57" height="8.57"/>
          <rect class="cls-2" x="137.15" y="257.14" width="8.57" height="8.57"/>
          <rect class="cls-2" x="154.28" y="257.14" width="8.57" height="8.57"/>
          <rect class="cls-2" x="171.42" y="257.14" width="8.57" height="8.57"/>
          <rect class="cls-2" x="120.01" y="257.14" width="8.57" height="8.57"/>
          <rect class="cls-2" x="145.73" y="265.72" width="8.57" height="8.57"/>
          <rect class="cls-2" x="137.15" y="274.29" width="8.57" height="8.57"/>
          <rect class="cls-2" x="154.28" y="274.29" width="8.57" height="8.57"/>
          <rect class="cls-2" x="171.42" y="274.29" width="8.57" height="8.57"/>
          <rect class="cls-2" x="120.01" y="274.29" width="8.57" height="8.57"/>
          <rect class="cls-2" x="137.15" y="291.43" width="8.57" height="8.57"/>
          <rect class="cls-2" x="154.28" y="291.43" width="8.57" height="8.57"/>
          <rect class="cls-2" x="171.42" y="291.43" width="8.57" height="8.57"/>
          <rect class="cls-2" x="120.01" y="291.43" width="8.57" height="8.57"/>
        </g>
        <g>
          <rect class="cls-2" x="77.16" y="240" width="8.57" height="8.57"/>
          <rect class="cls-2" x="94.29" y="240" width="8.57" height="8.57"/>
          <rect class="cls-2" x="111.43" y="240" width="8.57" height="8.57"/>
          <rect class="cls-2" x="60.02" y="240" width="8.57" height="8.57"/>
          <rect class="cls-2" x="77.16" y="257.14" width="8.57" height="8.57"/>
          <rect class="cls-2" x="94.29" y="257.14" width="8.57" height="8.57"/>
          <rect class="cls-2" x="111.43" y="257.14" width="8.57" height="8.57"/>
          <rect class="cls-2" x="60.02" y="257.14" width="8.57" height="8.57"/>
          <rect class="cls-2" x="85.74" y="265.72" width="8.57" height="8.57"/>
          <rect class="cls-2" x="77.16" y="274.29" width="8.57" height="8.57"/>
          <rect class="cls-2" x="94.29" y="274.29" width="8.57" height="8.57"/>
          <rect class="cls-2" x="111.43" y="274.29" width="8.57" height="8.57"/>
          <rect class="cls-2" x="60.02" y="274.29" width="8.57" height="8.57"/>
          <rect class="cls-2" x="77.16" y="291.43" width="8.57" height="8.57"/>
          <rect class="cls-2" x="94.29" y="291.43" width="8.57" height="8.57"/>
          <rect class="cls-2" x="111.43" y="291.43" width="8.57" height="8.57"/>
          <rect class="cls-2" x="60.02" y="291.43" width="8.57" height="8.57"/>
        </g>
        <g>
          <rect class="cls-2" x="17.17" y="240" width="8.57" height="8.57"/>
          <rect class="cls-2" x="34.3" y="240" width="8.57" height="8.57"/>
          <rect class="cls-2" x="51.44" y="240" width="8.57" height="8.57"/>
          <rect class="cls-2" x=".03" y="240" width="8.57" height="8.57"/>
          <rect class="cls-2" x="17.17" y="257.14" width="8.57" height="8.57"/>
          <rect class="cls-2" x="34.3" y="257.14" width="8.57" height="8.57"/>
          <rect class="cls-2" x="51.44" y="257.14" width="8.57" height="8.57"/>
          <rect class="cls-2" x=".03" y="257.14" width="8.57" height="8.57"/>
          <rect class="cls-2" x="25.75" y="265.72" width="8.57" height="8.57"/>
          <rect class="cls-2" x="17.17" y="274.29" width="8.57" height="8.57"/>
          <rect class="cls-2" x="34.3" y="274.29" width="8.57" height="8.57"/>
          <rect class="cls-2" x="51.44" y="274.29" width="8.57" height="8.57"/>
          <rect class="cls-2" x=".03" y="274.29" width="8.57" height="8.57"/>
          <rect class="cls-2" x="17.17" y="291.43" width="8.57" height="8.57"/>
          <rect class="cls-2" x="34.3" y="291.43" width="8.57" height="8.57"/>
          <rect class="cls-2" x="51.44" y="291.43" width="8.57" height="8.57"/>
          <rect class="cls-2" x=".03" y="291.43" width="8.57" height="8.57"/>
        </g>
        <g>
          <rect class="cls-2" x="17.17" y="180" width="8.57" height="8.57"/>
          <rect class="cls-2" x="34.3" y="180" width="8.57" height="8.57"/>
          <rect class="cls-2" x="51.44" y="180" width="8.57" height="8.57"/>
          <rect class="cls-2" x=".03" y="180" width="8.57" height="8.57"/>
          <rect class="cls-2" x="17.17" y="197.14" width="8.57" height="8.57"/>
          <rect class="cls-2" x="34.3" y="197.14" width="8.57" height="8.57"/>
          <rect class="cls-2" x="51.44" y="197.14" width="8.57" height="8.57"/>
          <rect class="cls-2" x=".03" y="197.14" width="8.57" height="8.57"/>
          <rect class="cls-2" x="25.75" y="205.72" width="8.57" height="8.57"/>
          <rect class="cls-2" x="17.17" y="214.29" width="8.57" height="8.57"/>
          <rect class="cls-2" x="34.3" y="214.29" width="8.57" height="8.57"/>
          <rect class="cls-2" x="51.44" y="214.29" width="8.57" height="8.57"/>
          <rect class="cls-2" x=".03" y="214.29" width="8.57" height="8.57"/>
          <rect class="cls-2" x="17.17" y="231.43" width="8.57" height="8.57"/>
          <rect class="cls-2" x="34.3" y="231.43" width="8.57" height="8.57"/>
          <rect class="cls-2" x="51.44" y="231.43" width="8.57" height="8.57"/>
          <rect class="cls-2" x=".03" y="231.43" width="8.57" height="8.57"/>
        </g>
        <g>
          <rect class="cls-2" x="17.17" y="120" width="8.57" height="8.57"/>
          <rect class="cls-2" x="34.3" y="120" width="8.57" height="8.57"/>
          <rect class="cls-2" x="51.44" y="120" width="8.57" height="8.57"/>
          <rect class="cls-2" x=".03" y="120" width="8.57" height="8.57"/>
          <rect class="cls-2" x="17.17" y="137.14" width="8.57" height="8.57"/>
          <rect class="cls-2" x="34.3" y="137.14" width="8.57" height="8.57"/>
          <rect class="cls-2" x="51.44" y="137.14" width="8.57" height="8.57"/>
          <rect class="cls-2" x=".03" y="137.14" width="8.57" height="8.57"/>
          <rect class="cls-2" x="25.75" y="145.72" width="8.57" height="8.57"/>
          <rect class="cls-2" x="17.17" y="154.29" width="8.57" height="8.57"/>
          <rect class="cls-2" x="34.3" y="154.29" width="8.57" height="8.57"/>
          <rect class="cls-2" x="51.44" y="154.29" width="8.57" height="8.57"/>
          <rect class="cls-2" x=".03" y="154.29" width="8.57" height="8.57"/>
          <rect class="cls-2" x="17.17" y="171.43" width="8.57" height="8.57"/>
          <rect class="cls-2" x="34.3" y="171.43" width="8.57" height="8.57"/>
          <rect class="cls-2" x="51.44" y="171.43" width="8.57" height="8.57"/>
          <rect class="cls-2" x=".03" y="171.43" width="8.57" height="8.57"/>
        </g>
        <g>
          <rect class="cls-2" x="17.17" y="60" width="8.57" height="8.57"/>
          <rect class="cls-2" x="34.3" y="60" width="8.57" height="8.57"/>
          <rect class="cls-2" x="51.44" y="60" width="8.57" height="8.57"/>
          <rect class="cls-2" x=".03" y="60" width="8.57" height="8.57"/>
          <rect class="cls-2" x="17.17" y="77.14" width="8.57" height="8.57"/>
          <rect class="cls-2" x="34.3" y="77.14" width="8.57" height="8.57"/>
          <rect class="cls-2" x="51.44" y="77.14" width="8.57" height="8.57"/>
          <rect class="cls-2" x=".03" y="77.14" width="8.57" height="8.57"/>
          <rect class="cls-2" x="25.75" y="85.72" width="8.57" height="8.57"/>
          <rect class="cls-2" x="17.17" y="94.29" width="8.57" height="8.57"/>
          <rect class="cls-2" x="34.3" y="94.29" width="8.57" height="8.57"/>
          <rect class="cls-2" x="51.44" y="94.29" width="8.57" height="8.57"/>
          <rect class="cls-2" x=".03" y="94.29" width="8.57" height="8.57"/>
          <rect class="cls-2" x="17.17" y="111.43" width="8.57" height="8.57"/>
          <rect class="cls-2" x="34.3" y="111.43" width="8.57" height="8.57"/>
          <rect class="cls-2" x="51.44" y="111.43" width="8.57" height="8.57"/>
          <rect class="cls-2" x=".03" y="111.43" width="8.57" height="8.57"/>
        </g>
        <g>
          <rect class="cls-2" x="17.17" y="0" width="8.57" height="8.57"/>
          <rect class="cls-2" x="34.3" y="0" width="8.57" height="8.57"/>
          <rect class="cls-2" x="51.44" y="0" width="8.57" height="8.57"/>
          <rect class="cls-2" x=".03" y="0" width="8.57" height="8.57"/>
          <rect class="cls-2" x="17.17" y="17.14" width="8.57" height="8.57"/>
          <rect class="cls-2" x="34.3" y="17.14" width="8.57" height="8.57"/>
          <rect class="cls-2" x="51.44" y="17.14" width="8.57" height="8.57"/>
          <rect class="cls-2" x=".03" y="17.14" width="8.57" height="8.57"/>
          <rect class="cls-2" x="25.75" y="25.72" width="8.57" height="8.57"/>
          <rect class="cls-2" x="17.17" y="34.29" width="8.57" height="8.57"/>
          <rect class="cls-2" x="34.3" y="34.29" width="8.57" height="8.57"/>
          <rect class="cls-2" x="51.44" y="34.29" width="8.57" height="8.57"/>
          <rect class="cls-2" x=".03" y="34.29" width="8.57" height="8.57"/>
          <rect class="cls-2" x="17.17" y="51.43" width="8.57" height="8.57"/>
          <rect class="cls-2" x="34.3" y="51.43" width="8.57" height="8.57"/>
          <rect class="cls-2" x="51.44" y="51.43" width="8.57" height="8.57"/>
          <rect class="cls-2" x=".03" y="51.43" width="8.57" height="8.57"/>
        </g>
      </g>
      <rect class="cls-1" width="299.97" height="299.97"/>
    </g>
  </g>
</svg>