<?xml version="1.0" encoding="UTF-8"?>
<svg id="Layer_1" xmlns="http://www.w3.org/2000/svg" version="1.1" viewBox="0 0 300 300">
  <!-- Generator: Adobe Illustrator 29.5.1, SVG Export Plug-In . SVG Version: 2.1.0 Build 141)  -->
  <defs>
    <style>
      .st0 {
        fill: #faf9ec;
      }
    </style>
  </defs>
  <rect class="st0" x="162.42" y="195.24" width="4.76" height="4.76"/>
  <rect class="st0" x="162.42" y="166.67" width="4.76" height="4.76"/>
  <rect class="st0" x="143.38" y="176.19" width="14.29" height="14.29"/>
  <rect class="st0" x="129.09" y="133.33" width="4.76" height="4.76"/>
  <rect class="st0" x="100.52" y="133.33" width="4.76" height="4.76"/>
  <rect class="st0" x="110.05" y="142.85" width="14.29" height="14.29"/>
  <polygon class="st0" points="195.75 166.67 195.75 171.43 200.51 171.43 200.51 166.67 200.51 161.91 195.75 161.91 195.75 166.67"/>
  <polygon class="st0" points="167.19 166.67 167.19 171.43 171.95 171.43 171.95 166.67 171.95 161.91 167.19 161.91 167.19 166.67"/>
  <rect class="st0" x="176.71" y="142.85" width="14.29" height="14.29"/>
  <rect class="st0" x="162.42" y="100" width="4.76" height="4.76"/>
  <rect class="st0" x="143.38" y="109.52" width="14.29" height="14.29"/>
  <polygon class="st0" points="233.85 261.91 229.09 261.91 229.09 266.67 229.1 266.67 229.1 271.43 233.86 271.43 233.86 266.67 233.85 266.67 233.85 261.91"/>
  <polygon class="st0" points="205.28 261.91 200.52 261.91 200.52 266.67 200.54 266.67 200.54 271.43 205.3 271.43 205.3 266.67 205.28 266.67 205.28 261.91"/>
  <polygon class="st0" points="233.85 233.33 233.85 228.57 229.09 228.57 229.09 233.33 229.09 238.09 233.85 238.09 233.85 233.33"/>
  <polygon class="st0" points="205.28 233.33 205.28 228.57 200.52 228.57 200.52 233.33 200.52 238.09 205.28 238.09 205.28 233.33"/>
  <rect class="st0" x="210.05" y="242.85" width="14.29" height="14.29"/>
  <rect class="st0" x="262.42" y="261.91" width="4.76" height="4.76"/>
  <rect class="st0" x="233.86" y="261.91" width="4.76" height="4.76"/>
  <rect class="st0" x="243.38" y="242.85" width="14.29" height="14.29"/>
  <polygon class="st0" points="262.42 233.33 262.42 238.09 267.18 238.09 267.18 233.33 267.18 228.57 262.42 228.57 262.42 233.33"/>
  <polygon class="st0" points="233.86 233.33 233.86 238.09 238.62 238.09 238.62 233.33 238.62 228.57 233.86 228.57 233.86 233.33"/>
  <rect class="st0" x="243.38" y="209.52" width="14.29" height="14.29"/>
  <polygon class="st0" points="262.42 200 262.42 204.76 267.18 204.76 267.18 200 267.18 195.24 262.42 195.24 262.42 200"/>
  <polygon class="st0" points="233.86 200 233.86 204.76 238.62 204.76 238.62 200 238.62 195.24 233.86 195.24 233.86 200"/>
  <rect class="st0" x="262.42" y="166.67" width="4.76" height="4.76"/>
  <rect class="st0" x="233.86" y="166.67" width="4.76" height="4.76"/>
  <rect class="st0" x="243.38" y="176.19" width="14.29" height="14.29"/>
  <rect class="st0" x="195.75" y="261.91" width="4.76" height="4.76"/>
  <rect class="st0" x="167.19" y="261.91" width="4.76" height="4.76"/>
  <rect class="st0" x="195.75" y="233.33" width="4.76" height="4.76"/>
  <rect class="st0" x="167.19" y="233.33" width="4.76" height="4.76"/>
  <rect class="st0" x="176.71" y="242.85" width="14.29" height="14.29"/>
  <rect class="st0" x="229.09" y="33.33" width="4.76" height="4.76"/>
  <rect class="st0" x="200.52" y="33.33" width="4.76" height="4.76"/>
  <rect class="st0" x="210.05" y="42.86" width="14.29" height="14.29"/>
  <rect class="st0" x="262.42" y="33.33" width="4.76" height="4.76"/>
  <rect class="st0" x="233.86" y="33.33" width="4.76" height="4.76"/>
  <polygon class="st0" points="233.86 66.67 233.86 71.43 238.62 71.43 238.62 66.67 238.62 61.91 233.86 61.91 233.86 66.67"/>
  <rect class="st0" x="243.38" y="42.86" width="14.29" height="14.29"/>
  <rect class="st0" x="295.75" width="4.76" height="4.76"/>
  <rect class="st0" x="267.19" width="4.76" height="4.76"/>
  <rect class="st0" x="295.75" y="28.57" width="4.76" height="4.76"/>
  <rect class="st0" x="267.19" y="28.57" width="4.76" height="4.76"/>
  <rect class="st0" x="276.71" y="9.52" width="14.29" height="14.29"/>
  <rect class="st0" x="295.75" y="266.67" width="4.76" height="4.76"/>
  <rect class="st0" x="267.19" y="266.67" width="4.76" height="4.76"/>
  <rect class="st0" x="295.75" y="295.24" width="4.76" height="4.76"/>
  <rect class="st0" x="267.19" y="295.24" width="4.76" height="4.76"/>
  <rect class="st0" x="276.71" y="276.19" width="14.29" height="14.29"/>
  <rect class="st0" x="29.09" width="4.76" height="4.76"/>
  <rect class="st0" x=".52" width="4.76" height="4.76"/>
  <rect class="st0" x="29.09" y="28.57" width="4.76" height="4.76"/>
  <rect class="st0" x=".52" y="28.57" width="4.76" height="4.76"/>
  <rect class="st0" x="10.05" y="9.52" width="14.29" height="14.29"/>
  <rect class="st0" x="29.09" y="266.67" width="4.76" height="4.76"/>
  <rect class="st0" x=".52" y="266.67" width="4.76" height="4.76"/>
  <rect class="st0" x="29.09" y="295.24" width="4.76" height="4.76"/>
  <rect class="st0" x=".52" y="295.24" width="4.76" height="4.76"/>
  <rect class="st0" x="10.05" y="276.19" width="14.29" height="14.29"/>
  <polygon class="st0" points="229.09 71.43 233.85 71.43 233.85 66.67 233.85 66.67 233.85 61.91 229.09 61.91 229.09 66.67 229.09 66.67 229.09 71.43"/>
  <polygon class="st0" points="200.52 71.43 205.28 71.43 205.28 66.67 205.28 66.67 205.28 61.91 200.52 61.91 200.52 66.67 200.52 66.67 200.52 71.43"/>
  <rect class="st0" x="229.09" y="95.24" width="4.76" height="4.76"/>
  <rect class="st0" x="200.52" y="95.24" width="4.76" height="4.76"/>
  <rect class="st0" x="210.05" y="76.19" width="14.29" height="14.29"/>
  <rect class="st0" x="195.75" y="100" width="4.76" height="4.76"/>
  <rect class="st0" x="167.19" y="100" width="4.76" height="4.76"/>
  <polygon class="st0" points="195.75 133.33 195.75 138.09 200.51 138.09 200.51 133.33 200.51 128.57 195.75 128.57 195.75 133.33"/>
  <polygon class="st0" points="167.19 133.33 167.19 138.09 171.95 138.09 171.95 133.33 171.95 128.57 167.19 128.57 167.19 133.33"/>
  <rect class="st0" x="176.71" y="109.52" width="14.29" height="14.29"/>
  <polygon class="st0" points="262.42 100 262.42 100 262.42 104.76 267.18 104.76 267.18 100 267.18 100 267.18 95.24 262.42 95.24 262.42 100"/>
  <polygon class="st0" points="233.86 100 233.86 100 233.86 104.76 238.62 104.76 238.62 100 238.62 100 238.62 95.24 233.86 95.24 233.86 100"/>
  <rect class="st0" x="243.38" y="76.19" width="14.29" height="14.29"/>
  <rect class="st0" x="262.42" y="128.57" width="4.76" height="4.76"/>
  <rect class="st0" x="233.86" y="128.57" width="4.76" height="4.76"/>
  <rect class="st0" x="243.38" y="109.52" width="14.29" height="14.29"/>
  <rect class="st0" x="195.75" y="33.33" width="4.76" height="4.76"/>
  <rect class="st0" x="167.19" y="33.33" width="4.76" height="4.76"/>
  <rect class="st0" x="195.75" y="61.91" width="4.76" height="4.76"/>
  <rect class="st0" x="167.19" y="61.91" width="4.76" height="4.76"/>
  <rect class="st0" x="176.71" y="42.86" width="14.29" height="14.29"/>
  <polygon class="st0" points="67.2 266.67 67.2 266.67 67.2 271.43 71.96 271.43 71.96 266.67 71.96 266.67 71.96 261.91 67.2 261.91 67.2 266.67"/>
  <polygon class="st0" points="95.77 266.67 95.77 266.67 95.77 271.43 100.52 271.43 100.52 266.67 100.52 266.67 100.52 261.91 95.77 261.91 95.77 266.67"/>
  <rect class="st0" x="76.71" y="242.85" width="14.29" height="14.29"/>
  <rect class="st0" x="33.87" y="261.91" width="4.76" height="4.76"/>
  <rect class="st0" x="62.43" y="261.91" width="4.76" height="4.76"/>
  <rect class="st0" x="43.38" y="242.85" width="14.29" height="14.29"/>
  <polygon class="st0" points="67.2 233.33 67.2 238.09 71.96 238.09 71.96 233.33 71.96 228.57 67.2 228.57 67.2 233.33"/>
  <polygon class="st0" points="95.77 233.33 95.77 238.09 100.52 238.09 100.52 233.33 100.52 228.57 95.77 228.57 95.77 233.33"/>
  <rect class="st0" x="67.2" y="200" width="4.76" height="4.76"/>
  <rect class="st0" x="95.77" y="200" width="4.76" height="4.76"/>
  <rect class="st0" x="76.71" y="209.52" width="14.29" height="14.29"/>
  <rect class="st0" x="100.54" y="195.24" width="4.76" height="4.76"/>
  <polygon class="st0" points="133.86 195.24 129.1 195.24 129.1 200 133.86 200 133.86 200 138.62 200 138.62 195.24 133.86 195.24 133.86 195.24"/>
  <polygon class="st0" points="105.3 171.43 105.3 166.67 105.28 166.67 105.28 161.91 100.52 161.91 100.52 166.67 100.54 166.67 100.54 171.43 105.3 171.43"/>
  <polygon class="st0" points="133.86 166.67 133.85 166.67 133.85 161.91 129.09 161.91 129.09 166.67 129.1 166.67 129.1 171.43 133.86 171.43 133.86 171.43 138.62 171.43 138.62 166.67 133.86 166.67 133.86 166.67"/>
  <rect class="st0" x="110.05" y="176.19" width="14.29" height="14.29"/>
  <polygon class="st0" points="33.87 233.33 33.87 238.09 38.63 238.09 38.63 233.33 38.63 228.57 33.87 228.57 33.87 233.33"/>
  <polygon class="st0" points="62.43 233.33 62.43 238.09 67.19 238.09 67.19 233.33 67.19 228.57 62.43 228.57 62.43 233.33"/>
  <rect class="st0" x="43.38" y="209.52" width="14.29" height="14.29"/>
  <polygon class="st0" points="33.87 200 33.87 200 33.87 204.76 38.63 204.76 38.63 200 38.63 200 38.63 195.24 33.87 195.24 33.87 200"/>
  <polygon class="st0" points="62.43 200 62.43 200 62.43 204.76 67.19 204.76 67.19 200 67.19 200 67.19 195.24 62.43 195.24 62.43 200"/>
  <rect class="st0" x="33.87" y="166.67" width="4.76" height="4.76"/>
  <rect class="st0" x="62.43" y="166.67" width="4.76" height="4.76"/>
  <rect class="st0" x="43.38" y="176.19" width="14.29" height="14.29"/>
  <rect class="st0" x="100.54" y="261.91" width="4.76" height="4.76"/>
  <rect class="st0" x="129.1" y="261.91" width="4.76" height="4.76"/>
  <rect class="st0" x="100.54" y="233.33" width="4.76" height="4.76"/>
  <rect class="st0" x="129.1" y="233.33" width="4.76" height="4.76"/>
  <rect class="st0" x="110.05" y="242.85" width="14.29" height="14.29"/>
  <polygon class="st0" points="71.96 33.33 71.96 28.57 67.2 28.57 67.2 33.33 67.2 38.09 71.96 38.09 71.96 33.33"/>
  <polygon class="st0" points="100.52 33.33 100.52 28.57 95.77 28.57 95.77 33.33 95.77 38.09 100.52 38.09 100.52 33.33"/>
  <rect class="st0" x="76.71" y="42.86" width="14.29" height="14.29"/>
  <rect class="st0" x="33.87" y="33.33" width="4.76" height="4.76"/>
  <rect class="st0" x="62.43" y="33.33" width="4.76" height="4.76"/>
  <rect class="st0" x="43.38" y="42.86" width="14.29" height="14.29"/>
  <polygon class="st0" points="71.96 66.67 71.96 61.91 67.2 61.91 67.2 66.67 67.2 71.43 71.96 71.43 71.96 66.67"/>
  <polygon class="st0" points="100.52 66.67 100.52 61.91 95.77 61.91 95.77 66.67 95.77 71.43 100.52 71.43 100.52 66.67"/>
  <rect class="st0" x="67.2" y="95.24" width="4.76" height="4.76"/>
  <rect class="st0" x="95.77" y="95.24" width="4.76" height="4.76"/>
  <rect class="st0" x="76.71" y="76.19" width="14.29" height="14.29"/>
  <rect class="st0" x="100.54" y="100" width="4.76" height="4.76"/>
  <polygon class="st0" points="129.1 100 129.1 104.76 133.86 104.76 133.86 104.76 138.62 104.76 138.62 100 133.86 100 133.86 100 129.1 100"/>
  <rect class="st0" x="100.54" y="128.57" width="4.76" height="4.76"/>
  <rect class="st0" x="110.05" y="109.52" width="14.29" height="14.29"/>
  <rect class="st0" x=".54" y="66.67" width="4.76" height="4.76"/>
  <rect class="st0" x="29.1" y="66.67" width="4.76" height="4.76"/>
  <rect class="st0" x=".54" y="95.24" width="4.76" height="4.76"/>
  <rect class="st0" x="29.1" y="95.24" width="4.76" height="4.76"/>
  <rect class="st0" x="10.05" y="76.19" width="14.29" height="14.29"/>
  <rect class="st0" x=".54" y="200" width="4.76" height="4.76"/>
  <rect class="st0" x="29.1" y="200" width="4.76" height="4.76"/>
  <rect class="st0" x=".54" y="228.57" width="4.76" height="4.76"/>
  <rect class="st0" x="29.1" y="228.57" width="4.76" height="4.76"/>
  <rect class="st0" x="10.05" y="209.52" width="14.29" height="14.29"/>
  <rect class="st0" x="67.2" y="295.24" width="4.76" height="4.76"/>
  <rect class="st0" x="95.77" y="295.24" width="4.76" height="4.76"/>
  <rect class="st0" x="76.71" y="276.19" width="14.29" height="14.29"/>
  <rect class="st0" x="200.54" y="295.24" width="4.76" height="4.76"/>
  <rect class="st0" x="229.1" y="295.24" width="4.76" height="4.76"/>
  <rect class="st0" x="210.05" y="276.19" width="14.29" height="14.29"/>
  <rect class="st0" x="267.2" y="200" width="4.76" height="4.76"/>
  <rect class="st0" x="295.77" y="200" width="4.76" height="4.76"/>
  <rect class="st0" x="267.2" y="228.57" width="4.76" height="4.76"/>
  <rect class="st0" x="295.77" y="228.57" width="4.76" height="4.76"/>
  <rect class="st0" x="276.71" y="209.52" width="14.29" height="14.29"/>
  <rect class="st0" x="262.42" y="61.91" width="4.76" height="9.52"/>
  <rect class="st0" x="267.2" y="66.67" width="4.76" height="4.76"/>
  <rect class="st0" x="295.76" y="66.67" width="4.76" height="4.76"/>
  <rect class="st0" x="267.2" y="95.24" width="4.76" height="4.76"/>
  <rect class="st0" x="295.76" y="95.24" width="4.76" height="4.76"/>
  <rect class="st0" x="276.71" y="76.19" width="14.29" height="14.29"/>
  <rect class="st0" x="200.54" width="4.76" height="4.76"/>
  <rect class="st0" x="229.1" width="4.76" height="4.76"/>
  <rect class="st0" x="200.54" y="28.57" width="4.76" height="4.76"/>
  <rect class="st0" x="229.1" y="28.57" width="4.76" height="4.76"/>
  <rect class="st0" x="210.05" y="9.52" width="14.29" height="14.29"/>
  <rect class="st0" x="67.2" width="4.76" height="4.76"/>
  <rect class="st0" x="95.77" width="4.76" height="4.76"/>
  <rect class="st0" x="76.71" y="9.52" width="14.29" height="14.29"/>
  <polygon class="st0" points="38.63 66.67 38.63 61.91 33.87 61.91 33.87 66.67 33.87 71.43 38.63 71.43 38.63 66.67"/>
  <polygon class="st0" points="67.19 66.67 67.19 61.91 62.43 61.91 62.43 66.67 62.43 71.43 67.19 71.43 67.19 66.67"/>
  <polygon class="st0" points="38.63 95.24 33.87 95.24 33.87 100 33.87 100 33.87 104.76 38.63 104.76 38.63 100 38.63 100 38.63 95.24"/>
  <polygon class="st0" points="67.19 95.24 62.43 95.24 62.43 100 62.43 100 62.43 104.76 67.19 104.76 67.19 100 67.19 100 67.19 95.24"/>
  <rect class="st0" x="43.38" y="76.19" width="14.29" height="14.29"/>
  <rect class="st0" x="33.87" y="128.57" width="4.76" height="4.76"/>
  <rect class="st0" x="62.43" y="128.57" width="4.76" height="4.76"/>
  <rect class="st0" x="43.38" y="109.52" width="14.29" height="14.29"/>
  <rect class="st0" x="100.54" y="33.33" width="4.76" height="4.76"/>
  <rect class="st0" x="129.1" y="33.33" width="4.76" height="4.76"/>
  <rect class="st0" x="100.54" y="61.91" width="4.76" height="4.76"/>
  <rect class="st0" x="129.1" y="61.91" width="4.76" height="4.76"/>
  <rect class="st0" x="110.05" y="42.86" width="14.29" height="14.29"/>
  <rect class="st0" x="162.42" y="161.91" width="4.76" height="4.76"/>
  <rect class="st0" x="133.86" y="161.91" width="4.76" height="4.76"/>
  <polygon class="st0" points="167.18 133.33 167.18 133.33 167.18 128.57 162.42 128.57 162.42 133.33 162.42 133.33 162.42 138.09 167.18 138.09 167.18 133.33"/>
  <polygon class="st0" points="138.62 133.33 138.62 133.33 138.62 128.57 133.86 128.57 133.86 128.57 129.1 128.57 129.1 133.33 133.86 133.33 133.86 133.33 133.86 138.09 138.62 138.09 138.62 133.33"/>
  <rect class="st0" x="143.38" y="142.85" width="14.29" height="14.29"/>
  <rect class="st0" x="195.75" y="195.24" width="4.76" height="4.76"/>
  <rect class="st0" x="167.19" y="195.24" width="4.76" height="4.76"/>
  <rect class="st0" x="176.71" y="176.19" width="14.29" height="14.29"/>
  <rect class="st0" x="229.09" y="200" width="4.76" height="4.76"/>
  <rect class="st0" x="200.52" y="200" width="4.76" height="4.76"/>
  <rect class="st0" x="210.05" y="209.52" width="14.29" height="14.29"/>
</svg>