<?xml version="1.0" encoding="UTF-8"?>
<svg id="Layer_1" xmlns="http://www.w3.org/2000/svg" version="1.1" viewBox="0 0 300 300">
  <!-- Generator: Adobe Illustrator 29.5.1, SVG Export Plug-In . SVG Version: 2.1.0 Build 141)  -->
  <defs>
    <style>
      .st0 {
        fill: #faf9ec;
      }
    </style>
  </defs>
  <g>
    <g>
      <rect class="st0" x="159.75" y="133.57" width="4.76" height="4.76"/>
      <rect class="st0" x="159.75" y="162.11" width="4.76" height="4.76"/>
      <rect class="st0" x="150.23" y="152.59" width="4.76" height="4.76"/>
      <rect class="st0" x="150.23" y="143.09" width="4.76" height="4.76"/>
      <rect class="st0" x="145.47" y="147.83" width="4.76" height="4.76"/>
      <rect class="st0" x="140.71" y="152.59" width="4.76" height="4.76"/>
      <rect class="st0" x="140.71" y="143.09" width="4.76" height="4.76"/>
      <rect class="st0" x="131.19" y="133.57" width="4.76" height="4.76"/>
      <rect class="st0" x="131.19" y="162.11" width="4.76" height="4.76"/>
    </g>
    <g>
      <g>
        <rect class="st0" x="193.05" y="166.87" width="4.76" height="4.76"/>
        <rect class="st0" x="193.05" y="195.41" width="4.76" height="4.76"/>
        <rect class="st0" x="164.51" y="166.87" width="4.76" height="4.76"/>
        <rect class="st0" x="164.51" y="195.41" width="4.76" height="4.76"/>
      </g>
      <g>
        <rect class="st0" x="193.05" y="133.59" width="4.76" height="4.76"/>
        <rect class="st0" x="193.05" y="162.13" width="4.76" height="4.76"/>
        <rect class="st0" x="164.51" y="133.59" width="4.76" height="4.76"/>
        <rect class="st0" x="164.51" y="162.13" width="4.76" height="4.76"/>
      </g>
      <g>
        <rect class="st0" x="193.05" y="100.31" width="4.76" height="4.76"/>
        <rect class="st0" x="193.05" y="128.83" width="4.76" height="4.76"/>
        <rect class="st0" x="164.51" y="100.31" width="4.76" height="4.76"/>
        <rect class="st0" x="164.51" y="128.83" width="4.76" height="4.76"/>
      </g>
      <g>
        <rect class="st0" x="159.75" y="166.87" width="4.76" height="4.76"/>
        <rect class="st0" x="159.75" y="195.41" width="4.76" height="4.76"/>
        <rect class="st0" x="131.19" y="166.87" width="4.76" height="4.76"/>
        <rect class="st0" x="131.19" y="195.41" width="4.76" height="4.76"/>
      </g>
      <g>
        <rect class="st0" x="159.75" y="100.31" width="4.76" height="4.76"/>
        <rect class="st0" x="159.75" y="128.83" width="4.76" height="4.76"/>
        <rect class="st0" x="131.19" y="100.31" width="4.76" height="4.76"/>
        <rect class="st0" x="131.19" y="128.83" width="4.76" height="4.76"/>
      </g>
      <g>
        <rect class="st0" x="126.45" y="166.87" width="4.76" height="4.76"/>
        <rect class="st0" x="126.45" y="195.41" width="4.76" height="4.76"/>
        <rect class="st0" x="97.89" y="166.87" width="4.76" height="4.76"/>
        <rect class="st0" x="97.89" y="195.41" width="4.76" height="4.76"/>
      </g>
      <g>
        <rect class="st0" x="126.45" y="133.59" width="4.76" height="4.76"/>
        <rect class="st0" x="126.45" y="162.13" width="4.76" height="4.76"/>
        <rect class="st0" x="97.89" y="133.59" width="4.76" height="4.76"/>
        <rect class="st0" x="97.89" y="162.13" width="4.76" height="4.76"/>
      </g>
      <g>
        <rect class="st0" x="126.45" y="100.31" width="4.76" height="4.76"/>
        <rect class="st0" x="126.45" y="128.83" width="4.76" height="4.76"/>
        <rect class="st0" x="97.89" y="100.31" width="4.76" height="4.76"/>
        <rect class="st0" x="97.89" y="128.83" width="4.76" height="4.76"/>
      </g>
    </g>
  </g>
  <g>
    <g>
      <rect class="st0" x="226.35" y="219.19" width="4.76" height="4.76"/>
      <rect class="st0" x="226.35" y="209.69" width="4.76" height="4.76"/>
      <rect class="st0" x="226.35" y="200.17" width="4.76" height="4.76"/>
      <rect class="st0" x="226.35" y="228.71" width="4.76" height="4.76"/>
      <rect class="st0" x="221.59" y="223.95" width="4.76" height="4.76"/>
      <rect class="st0" x="221.59" y="214.43" width="4.76" height="4.76"/>
      <rect class="st0" x="221.59" y="204.91" width="4.76" height="4.76"/>
      <rect class="st0" x="216.83" y="219.19" width="4.76" height="4.76"/>
      <rect class="st0" x="216.83" y="209.69" width="4.76" height="4.76"/>
      <rect class="st0" x="216.83" y="200.17" width="4.76" height="4.76"/>
      <rect class="st0" x="216.83" y="228.71" width="4.76" height="4.76"/>
      <rect class="st0" x="212.09" y="223.95" width="4.76" height="4.76"/>
      <rect class="st0" x="212.09" y="214.43" width="4.76" height="4.76"/>
      <rect class="st0" x="212.09" y="204.91" width="4.76" height="4.76"/>
      <rect class="st0" x="207.33" y="219.19" width="4.76" height="4.76"/>
      <rect class="st0" x="207.33" y="209.69" width="4.76" height="4.76"/>
      <rect class="st0" x="207.33" y="200.17" width="4.76" height="4.76"/>
      <rect class="st0" x="207.33" y="228.71" width="4.76" height="4.76"/>
      <rect class="st0" x="202.57" y="223.95" width="4.76" height="4.76"/>
      <rect class="st0" x="202.57" y="214.43" width="4.76" height="4.76"/>
      <rect class="st0" x="202.57" y="204.91" width="4.76" height="4.76"/>
      <rect class="st0" x="197.81" y="219.19" width="4.76" height="4.76"/>
      <rect class="st0" x="197.81" y="209.69" width="4.76" height="4.76"/>
      <rect class="st0" x="197.81" y="200.17" width="4.76" height="4.76"/>
      <rect class="st0" x="197.81" y="228.71" width="4.76" height="4.76"/>
    </g>
    <g>
      <rect class="st0" x="226.35" y="185.91" width="4.76" height="4.76"/>
      <rect class="st0" x="226.35" y="176.39" width="4.76" height="4.76"/>
      <rect class="st0" x="226.35" y="166.87" width="4.76" height="4.76"/>
      <rect class="st0" x="226.35" y="195.41" width="4.76" height="4.76"/>
      <rect class="st0" x="221.59" y="190.65" width="4.76" height="4.76"/>
      <rect class="st0" x="221.59" y="181.15" width="4.76" height="4.76"/>
      <rect class="st0" x="221.59" y="171.63" width="4.76" height="4.76"/>
      <rect class="st0" x="216.83" y="185.91" width="4.76" height="4.76"/>
      <rect class="st0" x="216.83" y="176.39" width="4.76" height="4.76"/>
      <rect class="st0" x="216.83" y="166.87" width="4.76" height="4.76"/>
      <rect class="st0" x="216.83" y="195.41" width="4.76" height="4.76"/>
      <rect class="st0" x="212.09" y="190.65" width="4.76" height="4.76"/>
      <rect class="st0" x="212.09" y="181.15" width="4.76" height="4.76"/>
      <rect class="st0" x="212.09" y="171.63" width="4.76" height="4.76"/>
      <rect class="st0" x="207.33" y="185.91" width="4.76" height="4.76"/>
      <rect class="st0" x="207.33" y="176.39" width="4.76" height="4.76"/>
      <rect class="st0" x="207.33" y="166.87" width="4.76" height="4.76"/>
      <rect class="st0" x="207.33" y="195.41" width="4.76" height="4.76"/>
      <rect class="st0" x="202.57" y="190.65" width="4.76" height="4.76"/>
      <rect class="st0" x="202.57" y="181.15" width="4.76" height="4.76"/>
      <rect class="st0" x="202.57" y="171.63" width="4.76" height="4.76"/>
      <rect class="st0" x="197.81" y="185.91" width="4.76" height="4.76"/>
      <rect class="st0" x="197.81" y="176.39" width="4.76" height="4.76"/>
      <rect class="st0" x="197.81" y="166.87" width="4.76" height="4.76"/>
      <rect class="st0" x="197.81" y="195.41" width="4.76" height="4.76"/>
    </g>
    <g>
      <rect class="st0" x="226.35" y="152.61" width="4.76" height="4.76"/>
      <rect class="st0" x="226.35" y="143.11" width="4.76" height="4.76"/>
      <rect class="st0" x="226.35" y="133.59" width="4.76" height="4.76"/>
      <rect class="st0" x="226.35" y="162.13" width="4.76" height="4.76"/>
      <rect class="st0" x="221.59" y="157.37" width="4.76" height="4.76"/>
      <rect class="st0" x="221.59" y="147.85" width="4.76" height="4.76"/>
      <rect class="st0" x="221.59" y="138.33" width="4.76" height="4.76"/>
      <rect class="st0" x="216.83" y="152.61" width="4.76" height="4.76"/>
      <rect class="st0" x="216.83" y="143.11" width="4.76" height="4.76"/>
      <rect class="st0" x="216.83" y="133.59" width="4.76" height="4.76"/>
      <rect class="st0" x="216.83" y="162.13" width="4.76" height="4.76"/>
      <rect class="st0" x="212.09" y="157.37" width="4.76" height="4.76"/>
      <rect class="st0" x="212.09" y="147.85" width="4.76" height="4.76"/>
      <rect class="st0" x="212.09" y="138.33" width="4.76" height="4.76"/>
      <rect class="st0" x="207.33" y="152.61" width="4.76" height="4.76"/>
      <rect class="st0" x="207.33" y="143.11" width="4.76" height="4.76"/>
      <rect class="st0" x="207.33" y="133.59" width="4.76" height="4.76"/>
      <rect class="st0" x="207.33" y="162.13" width="4.76" height="4.76"/>
      <rect class="st0" x="202.57" y="157.37" width="4.76" height="4.76"/>
      <rect class="st0" x="202.57" y="147.85" width="4.76" height="4.76"/>
      <rect class="st0" x="202.57" y="138.33" width="4.76" height="4.76"/>
      <rect class="st0" x="197.81" y="152.61" width="4.76" height="4.76"/>
      <rect class="st0" x="197.81" y="143.11" width="4.76" height="4.76"/>
      <rect class="st0" x="197.81" y="133.59" width="4.76" height="4.76"/>
      <rect class="st0" x="197.81" y="162.13" width="4.76" height="4.76"/>
    </g>
    <g>
      <rect class="st0" x="226.35" y="119.33" width="4.76" height="4.76"/>
      <rect class="st0" x="226.35" y="109.81" width="4.76" height="4.76"/>
      <rect class="st0" x="226.35" y="100.31" width="4.76" height="4.76"/>
      <rect class="st0" x="226.35" y="128.83" width="4.76" height="4.76"/>
      <rect class="st0" x="221.59" y="124.07" width="4.76" height="4.76"/>
      <rect class="st0" x="221.59" y="114.57" width="4.76" height="4.76"/>
      <rect class="st0" x="221.59" y="105.05" width="4.76" height="4.76"/>
      <rect class="st0" x="216.83" y="119.33" width="4.76" height="4.76"/>
      <rect class="st0" x="216.83" y="109.81" width="4.76" height="4.76"/>
      <rect class="st0" x="216.83" y="100.31" width="4.76" height="4.76"/>
      <rect class="st0" x="216.83" y="128.83" width="4.76" height="4.76"/>
      <rect class="st0" x="212.09" y="124.07" width="4.76" height="4.76"/>
      <rect class="st0" x="212.09" y="114.57" width="4.76" height="4.76"/>
      <rect class="st0" x="212.09" y="105.05" width="4.76" height="4.76"/>
      <rect class="st0" x="207.33" y="119.33" width="4.76" height="4.76"/>
      <rect class="st0" x="207.33" y="109.81" width="4.76" height="4.76"/>
      <rect class="st0" x="207.33" y="100.31" width="4.76" height="4.76"/>
      <rect class="st0" x="207.33" y="128.83" width="4.76" height="4.76"/>
      <rect class="st0" x="202.57" y="124.07" width="4.76" height="4.76"/>
      <rect class="st0" x="202.57" y="114.57" width="4.76" height="4.76"/>
      <rect class="st0" x="202.57" y="105.05" width="4.76" height="4.76"/>
      <rect class="st0" x="197.81" y="119.33" width="4.76" height="4.76"/>
      <rect class="st0" x="197.81" y="109.81" width="4.76" height="4.76"/>
      <rect class="st0" x="197.81" y="100.31" width="4.76" height="4.76"/>
      <rect class="st0" x="197.81" y="128.83" width="4.76" height="4.76"/>
    </g>
    <g>
      <rect class="st0" x="226.35" y="86.03" width="4.76" height="4.76"/>
      <rect class="st0" x="226.35" y="76.53" width="4.76" height="4.76"/>
      <rect class="st0" x="226.35" y="67.01" width="4.76" height="4.76"/>
      <rect class="st0" x="226.35" y="95.55" width="4.76" height="4.76"/>
      <rect class="st0" x="221.59" y="90.79" width="4.76" height="4.76"/>
      <rect class="st0" x="221.59" y="81.27" width="4.76" height="4.76"/>
      <rect class="st0" x="221.59" y="71.75" width="4.76" height="4.76"/>
      <rect class="st0" x="216.83" y="86.03" width="4.76" height="4.76"/>
      <rect class="st0" x="216.83" y="76.53" width="4.76" height="4.76"/>
      <rect class="st0" x="216.83" y="67.01" width="4.76" height="4.76"/>
      <rect class="st0" x="216.83" y="95.55" width="4.76" height="4.76"/>
      <rect class="st0" x="212.09" y="90.79" width="4.76" height="4.76"/>
      <rect class="st0" x="212.09" y="81.27" width="4.76" height="4.76"/>
      <rect class="st0" x="212.09" y="71.75" width="4.76" height="4.76"/>
      <rect class="st0" x="207.33" y="86.03" width="4.76" height="4.76"/>
      <rect class="st0" x="207.33" y="76.53" width="4.76" height="4.76"/>
      <rect class="st0" x="207.33" y="67.01" width="4.76" height="4.76"/>
      <rect class="st0" x="207.33" y="95.55" width="4.76" height="4.76"/>
      <rect class="st0" x="202.57" y="90.79" width="4.76" height="4.76"/>
      <rect class="st0" x="202.57" y="81.27" width="4.76" height="4.76"/>
      <rect class="st0" x="202.57" y="71.75" width="4.76" height="4.76"/>
      <rect class="st0" x="197.81" y="86.03" width="4.76" height="4.76"/>
      <rect class="st0" x="197.81" y="76.53" width="4.76" height="4.76"/>
      <rect class="st0" x="197.81" y="67.01" width="4.76" height="4.76"/>
      <rect class="st0" x="197.81" y="95.55" width="4.76" height="4.76"/>
    </g>
    <g>
      <rect class="st0" x="193.05" y="86.03" width="4.76" height="4.76"/>
      <rect class="st0" x="193.05" y="76.53" width="4.76" height="4.76"/>
      <rect class="st0" x="193.05" y="67.01" width="4.76" height="4.76"/>
      <rect class="st0" x="193.05" y="95.55" width="4.76" height="4.76"/>
      <rect class="st0" x="188.29" y="90.79" width="4.76" height="4.76"/>
      <rect class="st0" x="188.29" y="81.27" width="4.76" height="4.76"/>
      <rect class="st0" x="188.29" y="71.75" width="4.76" height="4.76"/>
      <rect class="st0" x="183.53" y="86.03" width="4.76" height="4.76"/>
      <rect class="st0" x="183.53" y="76.53" width="4.76" height="4.76"/>
      <rect class="st0" x="183.53" y="67.01" width="4.76" height="4.76"/>
      <rect class="st0" x="183.53" y="95.55" width="4.76" height="4.76"/>
      <rect class="st0" x="178.77" y="90.79" width="4.76" height="4.76"/>
      <rect class="st0" x="178.77" y="81.27" width="4.76" height="4.76"/>
      <rect class="st0" x="178.77" y="71.75" width="4.76" height="4.76"/>
      <rect class="st0" x="174.01" y="86.03" width="4.76" height="4.76"/>
      <rect class="st0" x="174.01" y="76.53" width="4.76" height="4.76"/>
      <rect class="st0" x="174.01" y="67.01" width="4.76" height="4.76"/>
      <rect class="st0" x="174.01" y="95.55" width="4.76" height="4.76"/>
      <rect class="st0" x="169.27" y="90.79" width="4.76" height="4.76"/>
      <rect class="st0" x="169.27" y="81.27" width="4.76" height="4.76"/>
      <rect class="st0" x="169.27" y="71.75" width="4.76" height="4.76"/>
      <rect class="st0" x="164.51" y="86.03" width="4.76" height="4.76"/>
      <rect class="st0" x="164.51" y="76.53" width="4.76" height="4.76"/>
      <rect class="st0" x="164.51" y="67.01" width="4.76" height="4.76"/>
      <rect class="st0" x="164.51" y="95.55" width="4.76" height="4.76"/>
    </g>
    <g>
      <rect class="st0" x="159.75" y="86.03" width="4.76" height="4.76"/>
      <rect class="st0" x="159.75" y="76.53" width="4.76" height="4.76"/>
      <rect class="st0" x="159.75" y="67.01" width="4.76" height="4.76"/>
      <rect class="st0" x="159.75" y="95.55" width="4.76" height="4.76"/>
      <rect class="st0" x="154.99" y="90.79" width="4.76" height="4.76"/>
      <rect class="st0" x="154.99" y="81.27" width="4.76" height="4.76"/>
      <rect class="st0" x="154.99" y="71.75" width="4.76" height="4.76"/>
      <rect class="st0" x="150.23" y="86.03" width="4.76" height="4.76"/>
      <rect class="st0" x="150.23" y="76.53" width="4.76" height="4.76"/>
      <rect class="st0" x="150.23" y="67.01" width="4.76" height="4.76"/>
      <rect class="st0" x="150.23" y="95.55" width="4.76" height="4.76"/>
      <rect class="st0" x="145.47" y="90.79" width="4.76" height="4.76"/>
      <rect class="st0" x="145.47" y="81.27" width="4.76" height="4.76"/>
      <rect class="st0" x="145.47" y="71.75" width="4.76" height="4.76"/>
      <rect class="st0" x="140.71" y="86.03" width="4.76" height="4.76"/>
      <rect class="st0" x="140.71" y="76.53" width="4.76" height="4.76"/>
      <rect class="st0" x="140.71" y="67.01" width="4.76" height="4.76"/>
      <rect class="st0" x="140.71" y="95.55" width="4.76" height="4.76"/>
      <rect class="st0" x="135.95" y="90.79" width="4.76" height="4.76"/>
      <rect class="st0" x="135.95" y="81.27" width="4.76" height="4.76"/>
      <rect class="st0" x="135.95" y="71.75" width="4.76" height="4.76"/>
      <rect class="st0" x="131.19" y="86.03" width="4.76" height="4.76"/>
      <rect class="st0" x="131.19" y="76.53" width="4.76" height="4.76"/>
      <rect class="st0" x="131.19" y="67.01" width="4.76" height="4.76"/>
      <rect class="st0" x="131.19" y="95.55" width="4.76" height="4.76"/>
    </g>
    <g>
      <rect class="st0" x="126.45" y="86.03" width="4.76" height="4.76"/>
      <rect class="st0" x="126.45" y="76.53" width="4.76" height="4.76"/>
      <rect class="st0" x="126.45" y="67.01" width="4.76" height="4.76"/>
      <rect class="st0" x="126.45" y="95.55" width="4.76" height="4.76"/>
      <rect class="st0" x="121.69" y="90.79" width="4.76" height="4.76"/>
      <rect class="st0" x="121.69" y="81.27" width="4.76" height="4.76"/>
      <rect class="st0" x="121.69" y="71.75" width="4.76" height="4.76"/>
      <rect class="st0" x="116.93" y="86.03" width="4.76" height="4.76"/>
      <rect class="st0" x="116.93" y="76.53" width="4.76" height="4.76"/>
      <rect class="st0" x="116.93" y="67.01" width="4.76" height="4.76"/>
      <rect class="st0" x="116.93" y="95.55" width="4.76" height="4.76"/>
      <rect class="st0" x="112.17" y="90.79" width="4.76" height="4.76"/>
      <rect class="st0" x="112.17" y="81.27" width="4.76" height="4.76"/>
      <rect class="st0" x="112.17" y="71.75" width="4.76" height="4.76"/>
      <rect class="st0" x="107.41" y="86.03" width="4.76" height="4.76"/>
      <rect class="st0" x="107.41" y="76.53" width="4.76" height="4.76"/>
      <rect class="st0" x="107.41" y="67.01" width="4.76" height="4.76"/>
      <rect class="st0" x="107.41" y="95.55" width="4.76" height="4.76"/>
      <rect class="st0" x="102.65" y="90.79" width="4.76" height="4.76"/>
      <rect class="st0" x="102.65" y="81.27" width="4.76" height="4.76"/>
      <rect class="st0" x="102.65" y="71.75" width="4.76" height="4.76"/>
      <rect class="st0" x="97.89" y="86.03" width="4.76" height="4.76"/>
      <rect class="st0" x="97.89" y="76.53" width="4.76" height="4.76"/>
      <rect class="st0" x="97.89" y="67.01" width="4.76" height="4.76"/>
      <rect class="st0" x="97.89" y="95.55" width="4.76" height="4.76"/>
    </g>
    <g>
      <rect class="st0" x="93.15" y="86.03" width="4.76" height="4.76"/>
      <rect class="st0" x="93.15" y="76.53" width="4.76" height="4.76"/>
      <rect class="st0" x="93.15" y="67.01" width="4.76" height="4.76"/>
      <rect class="st0" x="93.15" y="95.55" width="4.76" height="4.76"/>
      <rect class="st0" x="88.39" y="90.79" width="4.76" height="4.76"/>
      <rect class="st0" x="88.39" y="81.27" width="4.76" height="4.76"/>
      <rect class="st0" x="88.39" y="71.75" width="4.76" height="4.76"/>
      <rect class="st0" x="83.63" y="86.03" width="4.76" height="4.76"/>
      <rect class="st0" x="83.63" y="76.53" width="4.76" height="4.76"/>
      <rect class="st0" x="83.63" y="67.01" width="4.76" height="4.76"/>
      <rect class="st0" x="83.63" y="95.55" width="4.76" height="4.76"/>
      <rect class="st0" x="78.87" y="90.79" width="4.76" height="4.76"/>
      <rect class="st0" x="78.87" y="81.27" width="4.76" height="4.76"/>
      <rect class="st0" x="78.87" y="71.75" width="4.76" height="4.76"/>
      <rect class="st0" x="74.11" y="86.03" width="4.76" height="4.76"/>
      <rect class="st0" x="74.11" y="76.53" width="4.76" height="4.76"/>
      <rect class="st0" x="74.11" y="67.01" width="4.76" height="4.76"/>
      <rect class="st0" x="74.11" y="95.55" width="4.76" height="4.76"/>
      <rect class="st0" x="69.36" y="90.79" width="4.76" height="4.76"/>
      <rect class="st0" x="69.36" y="81.27" width="4.76" height="4.76"/>
      <rect class="st0" x="69.36" y="71.75" width="4.76" height="4.76"/>
      <rect class="st0" x="64.6" y="86.03" width="4.76" height="4.76"/>
      <rect class="st0" x="64.6" y="76.53" width="4.76" height="4.76"/>
      <rect class="st0" x="64.6" y="67.01" width="4.76" height="4.76"/>
      <rect class="st0" x="64.6" y="95.55" width="4.76" height="4.76"/>
    </g>
    <g>
      <rect class="st0" x="93.15" y="119.31" width="4.76" height="4.76"/>
      <rect class="st0" x="93.15" y="109.81" width="4.76" height="4.76"/>
      <rect class="st0" x="93.15" y="100.29" width="4.76" height="4.76"/>
      <rect class="st0" x="93.15" y="128.83" width="4.76" height="4.76"/>
      <rect class="st0" x="88.39" y="124.07" width="4.76" height="4.76"/>
      <rect class="st0" x="88.39" y="114.55" width="4.76" height="4.76"/>
      <rect class="st0" x="88.39" y="105.03" width="4.76" height="4.76"/>
      <rect class="st0" x="83.63" y="119.31" width="4.76" height="4.76"/>
      <rect class="st0" x="83.63" y="109.81" width="4.76" height="4.76"/>
      <rect class="st0" x="83.63" y="100.29" width="4.76" height="4.76"/>
      <rect class="st0" x="83.63" y="128.83" width="4.76" height="4.76"/>
      <rect class="st0" x="78.87" y="124.07" width="4.76" height="4.76"/>
      <rect class="st0" x="78.87" y="114.55" width="4.76" height="4.76"/>
      <rect class="st0" x="78.87" y="105.03" width="4.76" height="4.76"/>
      <rect class="st0" x="74.11" y="119.31" width="4.76" height="4.76"/>
      <rect class="st0" x="74.11" y="109.81" width="4.76" height="4.76"/>
      <rect class="st0" x="74.11" y="100.29" width="4.76" height="4.76"/>
      <rect class="st0" x="74.11" y="128.83" width="4.76" height="4.76"/>
      <rect class="st0" x="69.36" y="124.07" width="4.76" height="4.76"/>
      <rect class="st0" x="69.36" y="114.55" width="4.76" height="4.76"/>
      <rect class="st0" x="69.36" y="105.03" width="4.76" height="4.76"/>
      <rect class="st0" x="64.6" y="119.31" width="4.76" height="4.76"/>
      <rect class="st0" x="64.6" y="109.81" width="4.76" height="4.76"/>
      <rect class="st0" x="64.6" y="100.29" width="4.76" height="4.76"/>
      <rect class="st0" x="64.6" y="128.83" width="4.76" height="4.76"/>
    </g>
    <g>
      <rect class="st0" x="93.15" y="152.59" width="4.76" height="4.76"/>
      <rect class="st0" x="93.15" y="143.09" width="4.76" height="4.76"/>
      <rect class="st0" x="93.15" y="133.57" width="4.76" height="4.76"/>
      <rect class="st0" x="93.15" y="162.11" width="4.76" height="4.76"/>
      <rect class="st0" x="88.39" y="157.35" width="4.76" height="4.76"/>
      <rect class="st0" x="88.39" y="147.83" width="4.76" height="4.76"/>
      <rect class="st0" x="88.39" y="138.33" width="4.76" height="4.76"/>
      <rect class="st0" x="83.63" y="152.59" width="4.76" height="4.76"/>
      <rect class="st0" x="83.63" y="143.09" width="4.76" height="4.76"/>
      <rect class="st0" x="83.63" y="133.57" width="4.76" height="4.76"/>
      <rect class="st0" x="83.63" y="162.11" width="4.76" height="4.76"/>
      <rect class="st0" x="78.87" y="157.35" width="4.76" height="4.76"/>
      <rect class="st0" x="78.87" y="147.83" width="4.76" height="4.76"/>
      <rect class="st0" x="78.87" y="138.33" width="4.76" height="4.76"/>
      <rect class="st0" x="74.11" y="152.59" width="4.76" height="4.76"/>
      <rect class="st0" x="74.11" y="143.09" width="4.76" height="4.76"/>
      <rect class="st0" x="74.11" y="133.57" width="4.76" height="4.76"/>
      <rect class="st0" x="74.11" y="162.11" width="4.76" height="4.76"/>
      <rect class="st0" x="69.36" y="157.35" width="4.76" height="4.76"/>
      <rect class="st0" x="69.36" y="147.83" width="4.76" height="4.76"/>
      <rect class="st0" x="69.36" y="138.33" width="4.76" height="4.76"/>
      <rect class="st0" x="64.6" y="152.59" width="4.76" height="4.76"/>
      <rect class="st0" x="64.6" y="143.09" width="4.76" height="4.76"/>
      <rect class="st0" x="64.6" y="133.57" width="4.76" height="4.76"/>
      <rect class="st0" x="64.6" y="162.11" width="4.76" height="4.76"/>
    </g>
    <g>
      <rect class="st0" x="93.15" y="185.89" width="4.76" height="4.76"/>
      <rect class="st0" x="93.15" y="176.37" width="4.76" height="4.76"/>
      <rect class="st0" x="93.15" y="166.85" width="4.76" height="4.76"/>
      <rect class="st0" x="93.15" y="195.39" width="4.76" height="4.76"/>
      <rect class="st0" x="88.39" y="190.63" width="4.76" height="4.76"/>
      <rect class="st0" x="88.39" y="181.11" width="4.76" height="4.76"/>
      <rect class="st0" x="88.39" y="171.61" width="4.76" height="4.76"/>
      <rect class="st0" x="83.63" y="185.89" width="4.76" height="4.76"/>
      <rect class="st0" x="83.63" y="176.37" width="4.76" height="4.76"/>
      <rect class="st0" x="83.63" y="166.85" width="4.76" height="4.76"/>
      <rect class="st0" x="83.63" y="195.39" width="4.76" height="4.76"/>
      <rect class="st0" x="78.87" y="190.63" width="4.76" height="4.76"/>
      <rect class="st0" x="78.87" y="181.11" width="4.76" height="4.76"/>
      <rect class="st0" x="78.87" y="171.61" width="4.76" height="4.76"/>
      <rect class="st0" x="74.11" y="185.89" width="4.76" height="4.76"/>
      <rect class="st0" x="74.11" y="176.37" width="4.76" height="4.76"/>
      <rect class="st0" x="74.11" y="166.85" width="4.76" height="4.76"/>
      <rect class="st0" x="74.11" y="195.39" width="4.76" height="4.76"/>
      <rect class="st0" x="69.36" y="190.63" width="4.76" height="4.76"/>
      <rect class="st0" x="69.36" y="181.11" width="4.76" height="4.76"/>
      <rect class="st0" x="69.36" y="171.61" width="4.76" height="4.76"/>
      <rect class="st0" x="64.6" y="185.89" width="4.76" height="4.76"/>
      <rect class="st0" x="64.6" y="176.37" width="4.76" height="4.76"/>
      <rect class="st0" x="64.6" y="166.85" width="4.76" height="4.76"/>
      <rect class="st0" x="64.6" y="195.39" width="4.76" height="4.76"/>
    </g>
    <g>
      <rect class="st0" x="93.15" y="219.17" width="4.76" height="4.76"/>
      <rect class="st0" x="93.15" y="209.65" width="4.76" height="4.76"/>
      <rect class="st0" x="93.15" y="200.15" width="4.76" height="4.76"/>
      <rect class="st0" x="93.15" y="228.67" width="4.76" height="4.76"/>
      <rect class="st0" x="88.39" y="223.91" width="4.76" height="4.76"/>
      <rect class="st0" x="88.39" y="214.41" width="4.76" height="4.76"/>
      <rect class="st0" x="88.39" y="204.89" width="4.76" height="4.76"/>
      <rect class="st0" x="83.63" y="219.17" width="4.76" height="4.76"/>
      <rect class="st0" x="83.63" y="209.65" width="4.76" height="4.76"/>
      <rect class="st0" x="83.63" y="200.15" width="4.76" height="4.76"/>
      <rect class="st0" x="83.63" y="228.67" width="4.76" height="4.76"/>
      <rect class="st0" x="78.87" y="223.91" width="4.76" height="4.76"/>
      <rect class="st0" x="78.87" y="214.41" width="4.76" height="4.76"/>
      <rect class="st0" x="78.87" y="204.89" width="4.76" height="4.76"/>
      <rect class="st0" x="74.11" y="219.17" width="4.76" height="4.76"/>
      <rect class="st0" x="74.11" y="209.65" width="4.76" height="4.76"/>
      <rect class="st0" x="74.11" y="200.15" width="4.76" height="4.76"/>
      <rect class="st0" x="74.11" y="228.67" width="4.76" height="4.76"/>
      <rect class="st0" x="69.36" y="223.91" width="4.76" height="4.76"/>
      <rect class="st0" x="69.36" y="214.41" width="4.76" height="4.76"/>
      <rect class="st0" x="69.36" y="204.89" width="4.76" height="4.76"/>
      <rect class="st0" x="64.6" y="219.17" width="4.76" height="4.76"/>
      <rect class="st0" x="64.6" y="209.65" width="4.76" height="4.76"/>
      <rect class="st0" x="64.6" y="200.15" width="4.76" height="4.76"/>
      <rect class="st0" x="64.6" y="228.67" width="4.76" height="4.76"/>
    </g>
    <g>
      <rect class="st0" x="126.45" y="219.17" width="4.76" height="4.76"/>
      <rect class="st0" x="126.45" y="209.65" width="4.76" height="4.76"/>
      <rect class="st0" x="126.45" y="200.15" width="4.76" height="4.76"/>
      <rect class="st0" x="126.45" y="228.67" width="4.76" height="4.76"/>
      <rect class="st0" x="121.69" y="223.91" width="4.76" height="4.76"/>
      <rect class="st0" x="121.69" y="214.41" width="4.76" height="4.76"/>
      <rect class="st0" x="121.69" y="204.89" width="4.76" height="4.76"/>
      <rect class="st0" x="116.93" y="219.17" width="4.76" height="4.76"/>
      <rect class="st0" x="116.93" y="209.65" width="4.76" height="4.76"/>
      <rect class="st0" x="116.93" y="200.15" width="4.76" height="4.76"/>
      <rect class="st0" x="116.93" y="228.67" width="4.76" height="4.76"/>
      <rect class="st0" x="112.17" y="223.91" width="4.76" height="4.76"/>
      <rect class="st0" x="112.17" y="214.41" width="4.76" height="4.76"/>
      <rect class="st0" x="112.17" y="204.89" width="4.76" height="4.76"/>
      <rect class="st0" x="107.41" y="219.17" width="4.76" height="4.76"/>
      <rect class="st0" x="107.41" y="209.65" width="4.76" height="4.76"/>
      <rect class="st0" x="107.41" y="200.15" width="4.76" height="4.76"/>
      <rect class="st0" x="107.41" y="228.67" width="4.76" height="4.76"/>
      <rect class="st0" x="102.65" y="223.91" width="4.76" height="4.76"/>
      <rect class="st0" x="102.65" y="214.41" width="4.76" height="4.76"/>
      <rect class="st0" x="102.65" y="204.89" width="4.76" height="4.76"/>
      <rect class="st0" x="97.89" y="219.17" width="4.76" height="4.76"/>
      <rect class="st0" x="97.89" y="209.65" width="4.76" height="4.76"/>
      <rect class="st0" x="97.89" y="200.15" width="4.76" height="4.76"/>
      <rect class="st0" x="97.89" y="228.67" width="4.76" height="4.76"/>
    </g>
    <g>
      <rect class="st0" x="159.75" y="219.17" width="4.76" height="4.76"/>
      <rect class="st0" x="159.75" y="209.65" width="4.76" height="4.76"/>
      <rect class="st0" x="159.75" y="200.15" width="4.76" height="4.76"/>
      <rect class="st0" x="159.75" y="228.67" width="4.76" height="4.76"/>
      <rect class="st0" x="154.99" y="223.91" width="4.76" height="4.76"/>
      <rect class="st0" x="154.99" y="214.41" width="4.76" height="4.76"/>
      <rect class="st0" x="154.99" y="204.89" width="4.76" height="4.76"/>
      <rect class="st0" x="150.23" y="219.17" width="4.76" height="4.76"/>
      <rect class="st0" x="150.23" y="209.65" width="4.76" height="4.76"/>
      <rect class="st0" x="150.23" y="200.15" width="4.76" height="4.76"/>
      <rect class="st0" x="150.23" y="228.67" width="4.76" height="4.76"/>
      <rect class="st0" x="145.47" y="223.91" width="4.76" height="4.76"/>
      <rect class="st0" x="145.47" y="214.41" width="4.76" height="4.76"/>
      <rect class="st0" x="145.47" y="204.89" width="4.76" height="4.76"/>
      <rect class="st0" x="140.71" y="219.17" width="4.76" height="4.76"/>
      <rect class="st0" x="140.71" y="209.65" width="4.76" height="4.76"/>
      <rect class="st0" x="140.71" y="200.15" width="4.76" height="4.76"/>
      <rect class="st0" x="140.71" y="228.67" width="4.76" height="4.76"/>
      <rect class="st0" x="135.95" y="223.91" width="4.76" height="4.76"/>
      <rect class="st0" x="135.95" y="214.41" width="4.76" height="4.76"/>
      <rect class="st0" x="135.95" y="204.89" width="4.76" height="4.76"/>
      <rect class="st0" x="131.19" y="219.17" width="4.76" height="4.76"/>
      <rect class="st0" x="131.19" y="209.65" width="4.76" height="4.76"/>
      <rect class="st0" x="131.19" y="200.15" width="4.76" height="4.76"/>
      <rect class="st0" x="131.19" y="228.67" width="4.76" height="4.76"/>
    </g>
    <g>
      <rect class="st0" x="193.05" y="219.17" width="4.76" height="4.76"/>
      <rect class="st0" x="193.05" y="209.65" width="4.76" height="4.76"/>
      <rect class="st0" x="193.05" y="200.15" width="4.76" height="4.76"/>
      <rect class="st0" x="193.05" y="228.67" width="4.76" height="4.76"/>
      <rect class="st0" x="188.29" y="223.91" width="4.76" height="4.76"/>
      <rect class="st0" x="188.29" y="214.41" width="4.76" height="4.76"/>
      <rect class="st0" x="188.29" y="204.89" width="4.76" height="4.76"/>
      <rect class="st0" x="183.53" y="219.17" width="4.76" height="4.76"/>
      <rect class="st0" x="183.53" y="209.65" width="4.76" height="4.76"/>
      <rect class="st0" x="183.53" y="200.15" width="4.76" height="4.76"/>
      <rect class="st0" x="183.53" y="228.67" width="4.76" height="4.76"/>
      <rect class="st0" x="178.77" y="223.91" width="4.76" height="4.76"/>
      <rect class="st0" x="178.77" y="214.41" width="4.76" height="4.76"/>
      <rect class="st0" x="178.77" y="204.89" width="4.76" height="4.76"/>
      <rect class="st0" x="174.01" y="219.17" width="4.76" height="4.76"/>
      <rect class="st0" x="174.01" y="209.65" width="4.76" height="4.76"/>
      <rect class="st0" x="174.01" y="200.15" width="4.76" height="4.76"/>
      <rect class="st0" x="174.01" y="228.67" width="4.76" height="4.76"/>
      <rect class="st0" x="169.27" y="223.91" width="4.76" height="4.76"/>
      <rect class="st0" x="169.27" y="214.41" width="4.76" height="4.76"/>
      <rect class="st0" x="169.27" y="204.89" width="4.76" height="4.76"/>
      <rect class="st0" x="164.51" y="219.17" width="4.76" height="4.76"/>
      <rect class="st0" x="164.51" y="209.65" width="4.76" height="4.76"/>
      <rect class="st0" x="164.51" y="200.15" width="4.76" height="4.76"/>
      <rect class="st0" x="164.51" y="228.67" width="4.76" height="4.76"/>
    </g>
  </g>
</svg>